G04 #@! TF.FileFunction,Copper,L1,Top,Signal*
%FSLAX46Y46*%
G04 Gerber Fmt 4.6, Leading zero omitted, Abs format (unit mm)*
G04 Created by KiCad (PCBNEW 4.0.7) date 07/11/18 14:17:59*
%MOMM*%
%LPD*%
G01*
G04 APERTURE LIST*
%ADD10C,0.100000*%
%ADD11O,2.000000X1.200000*%
%ADD12R,1.800000X1.800000*%
%ADD13C,1.800000*%
%ADD14O,1.998980X1.998980*%
%ADD15R,1.998980X1.998980*%
%ADD16R,1.500000X1.900000*%
%ADD17C,1.450000*%
%ADD18R,0.400000X1.350000*%
%ADD19O,1.200000X1.900000*%
%ADD20R,1.200000X1.900000*%
%ADD21C,1.600000*%
%ADD22O,1.600000X1.600000*%
%ADD23R,1.600000X1.600000*%
%ADD24C,6.000000*%
%ADD25R,2.600000X2.000000*%
%ADD26O,2.600000X2.000000*%
%ADD27C,0.250000*%
%ADD28C,0.254000*%
G04 APERTURE END LIST*
D10*
D11*
X190570000Y-63754000D03*
X167570000Y-63754000D03*
X190570000Y-66294000D03*
X167570000Y-66294000D03*
X190570000Y-68834000D03*
X167570000Y-68834000D03*
X190570000Y-71374000D03*
X167570000Y-71374000D03*
X190570000Y-73914000D03*
X167570000Y-73914000D03*
X190570000Y-76454000D03*
X167570000Y-76454000D03*
X190570000Y-78994000D03*
X167570000Y-78994000D03*
X190570000Y-81534000D03*
X167570000Y-81534000D03*
X190570000Y-84074000D03*
X167570000Y-84074000D03*
X190570000Y-86614000D03*
X167570000Y-86614000D03*
X190570000Y-89154000D03*
X167570000Y-89154000D03*
X190570000Y-91694000D03*
X167570000Y-91694000D03*
X190570000Y-94234000D03*
X167570000Y-94234000D03*
X190570000Y-96774000D03*
X167570000Y-96774000D03*
X190570000Y-99314000D03*
X167570000Y-99314000D03*
D12*
X156337000Y-105283000D03*
D13*
X158877000Y-105283000D03*
D14*
X133858000Y-63373000D03*
D15*
X133858000Y-55753000D03*
D14*
X133858000Y-58293000D03*
X133858000Y-60833000D03*
X133858000Y-65913000D03*
X133858000Y-68453000D03*
X133858000Y-70993000D03*
X133858000Y-73533000D03*
D16*
X156067000Y-115285000D03*
D17*
X152567000Y-112585000D03*
D18*
X154417000Y-112585000D03*
X153767000Y-112585000D03*
X156367000Y-112585000D03*
X155717000Y-112585000D03*
X155067000Y-112585000D03*
D17*
X157567000Y-112585000D03*
D16*
X154067000Y-115285000D03*
D19*
X151567000Y-115285000D03*
X158567000Y-115285000D03*
D20*
X157967000Y-115285000D03*
X152167000Y-115285000D03*
D21*
X146050000Y-55753000D03*
D22*
X138430000Y-55753000D03*
D21*
X146177000Y-60833000D03*
D22*
X138557000Y-60833000D03*
D21*
X146177000Y-65913000D03*
D22*
X138557000Y-65913000D03*
D21*
X146177000Y-70993000D03*
D22*
X138557000Y-70993000D03*
D21*
X158877000Y-109220000D03*
D22*
X151257000Y-109220000D03*
D23*
X148463000Y-55753000D03*
D22*
X156083000Y-73533000D03*
X148463000Y-58293000D03*
X156083000Y-70993000D03*
X148463000Y-60833000D03*
X156083000Y-68453000D03*
X148463000Y-63373000D03*
X156083000Y-65913000D03*
X148463000Y-65913000D03*
X156083000Y-63373000D03*
X148463000Y-68453000D03*
X156083000Y-60833000D03*
X148463000Y-70993000D03*
X156083000Y-58293000D03*
X148463000Y-73533000D03*
X156083000Y-55753000D03*
D24*
X131318000Y-114046000D03*
X188722000Y-114046000D03*
X157480000Y-84074000D03*
D25*
X134112000Y-78994000D03*
D26*
X134112000Y-81534000D03*
X134112000Y-84074000D03*
D25*
X134112000Y-88138000D03*
D26*
X134112000Y-90678000D03*
X134112000Y-93218000D03*
D27*
X155717000Y-112585000D02*
X155717000Y-111237000D01*
X155717000Y-111237000D02*
X155956000Y-110998000D01*
X156367000Y-112585000D02*
X156367000Y-111155000D01*
X156367000Y-111155000D02*
X156210000Y-110998000D01*
X158877000Y-109220000D02*
X158877000Y-105283000D01*
X133858000Y-63373000D02*
X148463000Y-63373000D01*
X133858000Y-55753000D02*
X138430000Y-55753000D01*
X133858000Y-58293000D02*
X148463000Y-58293000D01*
X133858000Y-60833000D02*
X138557000Y-60833000D01*
X138557000Y-65913000D02*
X133858000Y-65913000D01*
X133858000Y-68453000D02*
X148463000Y-68453000D01*
X133858000Y-70993000D02*
X138557000Y-70993000D01*
X133858000Y-73533000D02*
X148463000Y-73533000D01*
X167443000Y-99441000D02*
X162687000Y-99441000D01*
X151257000Y-102489000D02*
X154305000Y-99441000D01*
X154305000Y-99441000D02*
X162687000Y-99441000D01*
X151257000Y-102489000D02*
X151257000Y-109220000D01*
X167443000Y-99441000D02*
X167570000Y-99314000D01*
X153767000Y-112585000D02*
X153767000Y-109952000D01*
X153767000Y-109952000D02*
X153035000Y-109220000D01*
X153035000Y-109220000D02*
X151257000Y-109220000D01*
X146050000Y-55753000D02*
X148463000Y-55753000D01*
X146177000Y-60833000D02*
X148463000Y-60833000D01*
X148463000Y-65913000D02*
X146177000Y-65913000D01*
X146177000Y-70993000D02*
X148463000Y-70993000D01*
X156083000Y-70993000D02*
X156845000Y-70993000D01*
X156845000Y-70993000D02*
X158750000Y-69088000D01*
X158750000Y-69088000D02*
X158750000Y-61976000D01*
X158750000Y-61976000D02*
X159321500Y-61404500D01*
X187706000Y-71247000D02*
X187833000Y-71247000D01*
X187261500Y-61404500D02*
X187706000Y-61849000D01*
X187706000Y-61849000D02*
X187706000Y-71247000D01*
X159321500Y-61404500D02*
X187261500Y-61404500D01*
X188087000Y-71501000D02*
X190627000Y-71501000D01*
X187833000Y-71247000D02*
X188087000Y-71501000D01*
X159321500Y-61404500D02*
X159385000Y-61341000D01*
X156083000Y-65913000D02*
X158115000Y-63881000D01*
X188468000Y-61341000D02*
X188468000Y-61468000D01*
X187833000Y-60706000D02*
X188468000Y-61341000D01*
X158496000Y-60706000D02*
X187833000Y-60706000D01*
X158115000Y-61087000D02*
X158496000Y-60706000D01*
X190627000Y-68961000D02*
X188468000Y-66802000D01*
X188468000Y-61468000D02*
X188468000Y-61468000D01*
X188468000Y-61468000D02*
X188341000Y-61341000D01*
X188468000Y-66802000D02*
X188468000Y-61468000D01*
X158115000Y-63881000D02*
X158115000Y-61087000D01*
X190627000Y-66421000D02*
X189738000Y-66421000D01*
X156972000Y-59944000D02*
X156083000Y-60833000D01*
X188341000Y-59944000D02*
X156972000Y-59944000D01*
X189230000Y-60833000D02*
X188341000Y-59944000D01*
X189230000Y-65913000D02*
X189230000Y-60833000D01*
X189738000Y-66421000D02*
X189230000Y-65913000D01*
X190627000Y-63881000D02*
X190627000Y-60071000D01*
X160274000Y-55753000D02*
X156083000Y-55753000D01*
X163576000Y-59055000D02*
X160274000Y-55753000D01*
X189611000Y-59055000D02*
X163576000Y-59055000D01*
X190627000Y-60071000D02*
X189611000Y-59055000D01*
X134112000Y-81534000D02*
X137414000Y-81534000D01*
X139700000Y-83820000D02*
X139700000Y-88900000D01*
X137414000Y-81534000D02*
X139700000Y-83820000D01*
X167570000Y-89154000D02*
X139700000Y-89154000D01*
X138176000Y-90678000D02*
X134112000Y-90678000D01*
X139700000Y-89154000D02*
X138176000Y-90678000D01*
X167570000Y-89154000D02*
X177038000Y-89154000D01*
X177038000Y-89154000D02*
X177038000Y-89408000D01*
X177038000Y-89281000D02*
X177038000Y-89154000D01*
X190627000Y-76581000D02*
X177419000Y-76581000D01*
X179197000Y-99441000D02*
X177038000Y-97282000D01*
X177038000Y-97282000D02*
X177038000Y-89408000D01*
X177038000Y-89408000D02*
X177038000Y-89154000D01*
X177038000Y-89154000D02*
X177038000Y-77216000D01*
X179197000Y-99441000D02*
X190627000Y-99441000D01*
X177038000Y-76962000D02*
X177038000Y-77216000D01*
X177419000Y-76581000D02*
X177038000Y-76962000D01*
X142748000Y-77470000D02*
X135636000Y-77470000D01*
X188722000Y-73914000D02*
X186690000Y-71882000D01*
X186690000Y-71882000D02*
X186690000Y-62992000D01*
X186690000Y-62992000D02*
X185928000Y-62230000D01*
X185928000Y-62230000D02*
X160528000Y-62230000D01*
X160528000Y-62230000D02*
X160020000Y-62738000D01*
X160020000Y-62738000D02*
X160020000Y-73406000D01*
X160020000Y-73406000D02*
X155956000Y-77470000D01*
X155956000Y-77470000D02*
X142748000Y-77470000D01*
X190570000Y-73914000D02*
X188722000Y-73914000D01*
X135636000Y-77470000D02*
X134112000Y-78994000D01*
D28*
G36*
X191822000Y-62845103D02*
X191474646Y-62613009D01*
X191387000Y-62595575D01*
X191387000Y-60071000D01*
X191329148Y-59780161D01*
X191164401Y-59533599D01*
X190148401Y-58517599D01*
X189901839Y-58352852D01*
X189611000Y-58295000D01*
X163890802Y-58295000D01*
X160811401Y-55215599D01*
X160564839Y-55050852D01*
X160274000Y-54993000D01*
X157295995Y-54993000D01*
X157125811Y-54738302D01*
X156660264Y-54427233D01*
X156111113Y-54318000D01*
X156054887Y-54318000D01*
X155505736Y-54427233D01*
X155040189Y-54738302D01*
X154729120Y-55203849D01*
X154619887Y-55753000D01*
X154729120Y-56302151D01*
X155040189Y-56767698D01*
X155444703Y-57037986D01*
X155227866Y-57140611D01*
X154851959Y-57555577D01*
X154691096Y-57943961D01*
X154813085Y-58166000D01*
X155956000Y-58166000D01*
X155956000Y-58146000D01*
X156210000Y-58146000D01*
X156210000Y-58166000D01*
X157352915Y-58166000D01*
X157474904Y-57943961D01*
X157314041Y-57555577D01*
X156938134Y-57140611D01*
X156721297Y-57037986D01*
X157125811Y-56767698D01*
X157295995Y-56513000D01*
X159959198Y-56513000D01*
X162630198Y-59184000D01*
X157174920Y-59184000D01*
X157314041Y-59030423D01*
X157474904Y-58642039D01*
X157352915Y-58420000D01*
X156210000Y-58420000D01*
X156210000Y-58440000D01*
X155956000Y-58440000D01*
X155956000Y-58420000D01*
X154813085Y-58420000D01*
X154691096Y-58642039D01*
X154851959Y-59030423D01*
X155227866Y-59445389D01*
X155444703Y-59548014D01*
X155040189Y-59818302D01*
X154729120Y-60283849D01*
X154619887Y-60833000D01*
X154729120Y-61382151D01*
X155040189Y-61847698D01*
X155444703Y-62117986D01*
X155227866Y-62220611D01*
X154851959Y-62635577D01*
X154691096Y-63023961D01*
X154813085Y-63246000D01*
X155956000Y-63246000D01*
X155956000Y-63226000D01*
X156210000Y-63226000D01*
X156210000Y-63246000D01*
X156230000Y-63246000D01*
X156230000Y-63500000D01*
X156210000Y-63500000D01*
X156210000Y-63520000D01*
X155956000Y-63520000D01*
X155956000Y-63500000D01*
X154813085Y-63500000D01*
X154691096Y-63722039D01*
X154851959Y-64110423D01*
X155227866Y-64525389D01*
X155444703Y-64628014D01*
X155040189Y-64898302D01*
X154729120Y-65363849D01*
X154619887Y-65913000D01*
X154729120Y-66462151D01*
X155040189Y-66927698D01*
X155444703Y-67197986D01*
X155227866Y-67300611D01*
X154851959Y-67715577D01*
X154691096Y-68103961D01*
X154813085Y-68326000D01*
X155956000Y-68326000D01*
X155956000Y-68306000D01*
X156210000Y-68306000D01*
X156210000Y-68326000D01*
X157352915Y-68326000D01*
X157474904Y-68103961D01*
X157314041Y-67715577D01*
X156938134Y-67300611D01*
X156721297Y-67197986D01*
X157125811Y-66927698D01*
X157436880Y-66462151D01*
X157546113Y-65913000D01*
X157481688Y-65589114D01*
X157990000Y-65080802D01*
X157990000Y-68773198D01*
X156921448Y-69841750D01*
X156721297Y-69708014D01*
X156938134Y-69605389D01*
X157314041Y-69190423D01*
X157474904Y-68802039D01*
X157352915Y-68580000D01*
X156210000Y-68580000D01*
X156210000Y-68600000D01*
X155956000Y-68600000D01*
X155956000Y-68580000D01*
X154813085Y-68580000D01*
X154691096Y-68802039D01*
X154851959Y-69190423D01*
X155227866Y-69605389D01*
X155444703Y-69708014D01*
X155040189Y-69978302D01*
X154729120Y-70443849D01*
X154619887Y-70993000D01*
X154729120Y-71542151D01*
X155040189Y-72007698D01*
X155444703Y-72277986D01*
X155227866Y-72380611D01*
X154851959Y-72795577D01*
X154691096Y-73183961D01*
X154813085Y-73406000D01*
X155956000Y-73406000D01*
X155956000Y-73386000D01*
X156210000Y-73386000D01*
X156210000Y-73406000D01*
X157352915Y-73406000D01*
X157474904Y-73183961D01*
X157314041Y-72795577D01*
X156938134Y-72380611D01*
X156721297Y-72277986D01*
X157125811Y-72007698D01*
X157436880Y-71542151D01*
X157453325Y-71459477D01*
X159260000Y-69652802D01*
X159260000Y-73091198D01*
X155641198Y-76710000D01*
X135636000Y-76710000D01*
X135393414Y-76758254D01*
X135345160Y-76767852D01*
X135098599Y-76932599D01*
X134684638Y-77346560D01*
X132812000Y-77346560D01*
X132576683Y-77390838D01*
X132360559Y-77529910D01*
X132215569Y-77742110D01*
X132164560Y-77994000D01*
X132164560Y-79994000D01*
X132208838Y-80229317D01*
X132347910Y-80445441D01*
X132502329Y-80550951D01*
X132263548Y-80908313D01*
X132139091Y-81534000D01*
X132263548Y-82159687D01*
X132617971Y-82690120D01*
X132808188Y-82817219D01*
X132566078Y-83007683D01*
X132252856Y-83565645D01*
X132221876Y-83693566D01*
X132341223Y-83947000D01*
X133985000Y-83947000D01*
X133985000Y-83927000D01*
X134239000Y-83927000D01*
X134239000Y-83947000D01*
X135882777Y-83947000D01*
X136002124Y-83693566D01*
X135971144Y-83565645D01*
X135657922Y-83007683D01*
X135415812Y-82817219D01*
X135606029Y-82690120D01*
X135870707Y-82294000D01*
X137099198Y-82294000D01*
X138940000Y-84134802D01*
X138940000Y-88839198D01*
X137861198Y-89918000D01*
X135870707Y-89918000D01*
X135720907Y-89693808D01*
X135863441Y-89602090D01*
X136008431Y-89389890D01*
X136059440Y-89138000D01*
X136059440Y-87138000D01*
X136015162Y-86902683D01*
X135876090Y-86686559D01*
X135663890Y-86541569D01*
X135412000Y-86490560D01*
X132812000Y-86490560D01*
X132576683Y-86534838D01*
X132360559Y-86673910D01*
X132215569Y-86886110D01*
X132164560Y-87138000D01*
X132164560Y-89138000D01*
X132208838Y-89373317D01*
X132347910Y-89589441D01*
X132502329Y-89694951D01*
X132263548Y-90052313D01*
X132139091Y-90678000D01*
X132263548Y-91303687D01*
X132617971Y-91834120D01*
X132808188Y-91961219D01*
X132566078Y-92151683D01*
X132252856Y-92709645D01*
X132221876Y-92837566D01*
X132341223Y-93091000D01*
X133985000Y-93091000D01*
X133985000Y-93071000D01*
X134239000Y-93071000D01*
X134239000Y-93091000D01*
X135882777Y-93091000D01*
X136002124Y-92837566D01*
X135971144Y-92709645D01*
X135657922Y-92151683D01*
X135415812Y-91961219D01*
X135606029Y-91834120D01*
X135699653Y-91694000D01*
X165902968Y-91694000D01*
X165996977Y-92166614D01*
X166264691Y-92567277D01*
X166665354Y-92834991D01*
X167137968Y-92929000D01*
X168002032Y-92929000D01*
X168474646Y-92834991D01*
X168875309Y-92567277D01*
X169143023Y-92166614D01*
X169237032Y-91694000D01*
X169143023Y-91221386D01*
X168875309Y-90820723D01*
X168474646Y-90553009D01*
X168002032Y-90459000D01*
X167137968Y-90459000D01*
X166665354Y-90553009D01*
X166264691Y-90820723D01*
X165996977Y-91221386D01*
X165902968Y-91694000D01*
X135699653Y-91694000D01*
X135870707Y-91438000D01*
X138176000Y-91438000D01*
X138466839Y-91380148D01*
X138713401Y-91215401D01*
X140014802Y-89914000D01*
X166189002Y-89914000D01*
X166264691Y-90027277D01*
X166665354Y-90294991D01*
X167137968Y-90389000D01*
X168002032Y-90389000D01*
X168474646Y-90294991D01*
X168875309Y-90027277D01*
X168950998Y-89914000D01*
X176278000Y-89914000D01*
X176278000Y-97282000D01*
X176335852Y-97572839D01*
X176500599Y-97819401D01*
X178659599Y-99978401D01*
X178906161Y-100143148D01*
X179197000Y-100201000D01*
X189285229Y-100201000D01*
X189665354Y-100454991D01*
X190137968Y-100549000D01*
X191002032Y-100549000D01*
X191474646Y-100454991D01*
X191822000Y-100222897D01*
X191822000Y-112029803D01*
X191805400Y-111989628D01*
X190783751Y-110966194D01*
X189448218Y-110411632D01*
X188002126Y-110410370D01*
X186665628Y-110962600D01*
X185642194Y-111984249D01*
X185087632Y-113319782D01*
X185086370Y-114765874D01*
X185638600Y-116102372D01*
X186660249Y-117125806D01*
X186708882Y-117146000D01*
X133334197Y-117146000D01*
X133374372Y-117129400D01*
X134397806Y-116107751D01*
X134952368Y-114772218D01*
X134953630Y-113326126D01*
X134401400Y-111989628D01*
X133379751Y-110966194D01*
X132044218Y-110411632D01*
X130598126Y-110410370D01*
X129261628Y-110962600D01*
X128238194Y-111984249D01*
X128218000Y-112032882D01*
X128218000Y-109220000D01*
X149793887Y-109220000D01*
X149903120Y-109769151D01*
X150214189Y-110234698D01*
X150679736Y-110545767D01*
X151228887Y-110655000D01*
X151285113Y-110655000D01*
X151834264Y-110545767D01*
X152299811Y-110234698D01*
X152469995Y-109980000D01*
X152720198Y-109980000D01*
X153007000Y-110266802D01*
X153007000Y-111295118D01*
X152838708Y-111225237D01*
X152297666Y-111224764D01*
X151797628Y-111431376D01*
X151414720Y-111813616D01*
X151207237Y-112313292D01*
X151206764Y-112854334D01*
X151413376Y-113354372D01*
X151745983Y-113687560D01*
X151660569Y-113687560D01*
X151567000Y-113668948D01*
X151094386Y-113762957D01*
X150693723Y-114030671D01*
X150426009Y-114431334D01*
X150332000Y-114903948D01*
X150332000Y-115666052D01*
X150426009Y-116138666D01*
X150693723Y-116539329D01*
X151094386Y-116807043D01*
X151567000Y-116901052D01*
X151660569Y-116882440D01*
X152767000Y-116882440D01*
X153002317Y-116838162D01*
X153039728Y-116814088D01*
X153065110Y-116831431D01*
X153317000Y-116882440D01*
X154817000Y-116882440D01*
X155052317Y-116838162D01*
X155063979Y-116830658D01*
X155065110Y-116831431D01*
X155317000Y-116882440D01*
X156817000Y-116882440D01*
X157052317Y-116838162D01*
X157089728Y-116814088D01*
X157115110Y-116831431D01*
X157367000Y-116882440D01*
X158473431Y-116882440D01*
X158567000Y-116901052D01*
X159039614Y-116807043D01*
X159440277Y-116539329D01*
X159707991Y-116138666D01*
X159802000Y-115666052D01*
X159802000Y-114903948D01*
X159707991Y-114431334D01*
X159440277Y-114030671D01*
X159039614Y-113762957D01*
X158567000Y-113668948D01*
X158473431Y-113687560D01*
X158387525Y-113687560D01*
X158719280Y-113356384D01*
X158926763Y-112856708D01*
X158927236Y-112315666D01*
X158720624Y-111815628D01*
X158338384Y-111432720D01*
X157838708Y-111225237D01*
X157297666Y-111224764D01*
X156931207Y-111376182D01*
X156926698Y-111371673D01*
X156693309Y-111275000D01*
X156625750Y-111275000D01*
X156467000Y-111433750D01*
X156467000Y-111578482D01*
X156455327Y-111550301D01*
X156276698Y-111371673D01*
X156154170Y-111320920D01*
X156108250Y-111275000D01*
X155975750Y-111275000D01*
X155929830Y-111320920D01*
X155807302Y-111371673D01*
X155724748Y-111454226D01*
X155518890Y-111313569D01*
X155491215Y-111307965D01*
X155458250Y-111275000D01*
X155390691Y-111275000D01*
X155370247Y-111283468D01*
X155267000Y-111262560D01*
X154867000Y-111262560D01*
X154737411Y-111286944D01*
X154617000Y-111262560D01*
X154527000Y-111262560D01*
X154527000Y-109952000D01*
X154469148Y-109661161D01*
X154469148Y-109661160D01*
X154304401Y-109414599D01*
X153572401Y-108682599D01*
X153325839Y-108517852D01*
X153035000Y-108460000D01*
X152469995Y-108460000D01*
X152299811Y-108205302D01*
X152017000Y-108016333D01*
X152017000Y-105568750D01*
X154802000Y-105568750D01*
X154802000Y-106309310D01*
X154898673Y-106542699D01*
X155077302Y-106721327D01*
X155310691Y-106818000D01*
X156051250Y-106818000D01*
X156210000Y-106659250D01*
X156210000Y-105410000D01*
X154960750Y-105410000D01*
X154802000Y-105568750D01*
X152017000Y-105568750D01*
X152017000Y-104256690D01*
X154802000Y-104256690D01*
X154802000Y-104997250D01*
X154960750Y-105156000D01*
X156210000Y-105156000D01*
X156210000Y-103906750D01*
X156464000Y-103906750D01*
X156464000Y-105156000D01*
X156484000Y-105156000D01*
X156484000Y-105410000D01*
X156464000Y-105410000D01*
X156464000Y-106659250D01*
X156622750Y-106818000D01*
X157363309Y-106818000D01*
X157596698Y-106721327D01*
X157775327Y-106542699D01*
X157831119Y-106408006D01*
X158006357Y-106583551D01*
X158117000Y-106629494D01*
X158117000Y-107981354D01*
X158065200Y-108002757D01*
X157661176Y-108406077D01*
X157442250Y-108933309D01*
X157441752Y-109504187D01*
X157659757Y-110031800D01*
X158063077Y-110435824D01*
X158590309Y-110654750D01*
X159161187Y-110655248D01*
X159688800Y-110437243D01*
X160092824Y-110033923D01*
X160311750Y-109506691D01*
X160312248Y-108935813D01*
X160094243Y-108408200D01*
X159690923Y-108004176D01*
X159637000Y-107981785D01*
X159637000Y-106629846D01*
X159745371Y-106585068D01*
X160177551Y-106153643D01*
X160411733Y-105589670D01*
X160412265Y-104979009D01*
X160179068Y-104414629D01*
X159747643Y-103982449D01*
X159183670Y-103748267D01*
X158573009Y-103747735D01*
X158008629Y-103980932D01*
X157831159Y-104158092D01*
X157775327Y-104023301D01*
X157596698Y-103844673D01*
X157363309Y-103748000D01*
X156622750Y-103748000D01*
X156464000Y-103906750D01*
X156210000Y-103906750D01*
X156051250Y-103748000D01*
X155310691Y-103748000D01*
X155077302Y-103844673D01*
X154898673Y-104023301D01*
X154802000Y-104256690D01*
X152017000Y-104256690D01*
X152017000Y-102803802D01*
X154619802Y-100201000D01*
X166285229Y-100201000D01*
X166665354Y-100454991D01*
X167137968Y-100549000D01*
X168002032Y-100549000D01*
X168474646Y-100454991D01*
X168875309Y-100187277D01*
X169143023Y-99786614D01*
X169237032Y-99314000D01*
X169143023Y-98841386D01*
X168875309Y-98440723D01*
X168474646Y-98173009D01*
X168002032Y-98079000D01*
X167137968Y-98079000D01*
X166665354Y-98173009D01*
X166264691Y-98440723D01*
X166104143Y-98681000D01*
X154305000Y-98681000D01*
X154014161Y-98738852D01*
X153767599Y-98903599D01*
X150719599Y-101951599D01*
X150554852Y-102198161D01*
X150497000Y-102489000D01*
X150497000Y-108016333D01*
X150214189Y-108205302D01*
X149903120Y-108670849D01*
X149793887Y-109220000D01*
X128218000Y-109220000D01*
X128218000Y-97091609D01*
X165976538Y-97091609D01*
X165980408Y-97129281D01*
X166206920Y-97557474D01*
X166580053Y-97866390D01*
X167043000Y-98009000D01*
X167443000Y-98009000D01*
X167443000Y-96901000D01*
X167697000Y-96901000D01*
X167697000Y-98009000D01*
X168097000Y-98009000D01*
X168559947Y-97866390D01*
X168933080Y-97557474D01*
X169159592Y-97129281D01*
X169163462Y-97091609D01*
X169038731Y-96901000D01*
X167697000Y-96901000D01*
X167443000Y-96901000D01*
X166101269Y-96901000D01*
X165976538Y-97091609D01*
X128218000Y-97091609D01*
X128218000Y-96456391D01*
X165976538Y-96456391D01*
X166101269Y-96647000D01*
X167443000Y-96647000D01*
X167443000Y-95539000D01*
X167697000Y-95539000D01*
X167697000Y-96647000D01*
X169038731Y-96647000D01*
X169163462Y-96456391D01*
X169159592Y-96418719D01*
X168933080Y-95990526D01*
X168559947Y-95681610D01*
X168097000Y-95539000D01*
X167697000Y-95539000D01*
X167443000Y-95539000D01*
X167043000Y-95539000D01*
X166580053Y-95681610D01*
X166206920Y-95990526D01*
X165980408Y-96418719D01*
X165976538Y-96456391D01*
X128218000Y-96456391D01*
X128218000Y-93598434D01*
X132221876Y-93598434D01*
X132252856Y-93726355D01*
X132566078Y-94284317D01*
X133068980Y-94679942D01*
X133685000Y-94853000D01*
X133985000Y-94853000D01*
X133985000Y-93345000D01*
X134239000Y-93345000D01*
X134239000Y-94853000D01*
X134539000Y-94853000D01*
X135155020Y-94679942D01*
X135657922Y-94284317D01*
X135686168Y-94234000D01*
X165902968Y-94234000D01*
X165996977Y-94706614D01*
X166264691Y-95107277D01*
X166665354Y-95374991D01*
X167137968Y-95469000D01*
X168002032Y-95469000D01*
X168474646Y-95374991D01*
X168875309Y-95107277D01*
X169143023Y-94706614D01*
X169237032Y-94234000D01*
X169143023Y-93761386D01*
X168875309Y-93360723D01*
X168474646Y-93093009D01*
X168002032Y-92999000D01*
X167137968Y-92999000D01*
X166665354Y-93093009D01*
X166264691Y-93360723D01*
X165996977Y-93761386D01*
X165902968Y-94234000D01*
X135686168Y-94234000D01*
X135971144Y-93726355D01*
X136002124Y-93598434D01*
X135882777Y-93345000D01*
X134239000Y-93345000D01*
X133985000Y-93345000D01*
X132341223Y-93345000D01*
X132221876Y-93598434D01*
X128218000Y-93598434D01*
X128218000Y-84454434D01*
X132221876Y-84454434D01*
X132252856Y-84582355D01*
X132566078Y-85140317D01*
X133068980Y-85535942D01*
X133685000Y-85709000D01*
X133985000Y-85709000D01*
X133985000Y-84201000D01*
X134239000Y-84201000D01*
X134239000Y-85709000D01*
X134539000Y-85709000D01*
X135155020Y-85535942D01*
X135657922Y-85140317D01*
X135971144Y-84582355D01*
X136002124Y-84454434D01*
X135882777Y-84201000D01*
X134239000Y-84201000D01*
X133985000Y-84201000D01*
X132341223Y-84201000D01*
X132221876Y-84454434D01*
X128218000Y-84454434D01*
X128218000Y-54753510D01*
X132211070Y-54753510D01*
X132211070Y-56752490D01*
X132255348Y-56987807D01*
X132394420Y-57203931D01*
X132560473Y-57317390D01*
X132347928Y-57635486D01*
X132223510Y-58260978D01*
X132223510Y-58325022D01*
X132347928Y-58950514D01*
X132702241Y-59480781D01*
X132825290Y-59563000D01*
X132702241Y-59645219D01*
X132347928Y-60175486D01*
X132223510Y-60800978D01*
X132223510Y-60865022D01*
X132347928Y-61490514D01*
X132702241Y-62020781D01*
X132825290Y-62103000D01*
X132702241Y-62185219D01*
X132347928Y-62715486D01*
X132223510Y-63340978D01*
X132223510Y-63405022D01*
X132347928Y-64030514D01*
X132702241Y-64560781D01*
X132825290Y-64643000D01*
X132702241Y-64725219D01*
X132347928Y-65255486D01*
X132223510Y-65880978D01*
X132223510Y-65945022D01*
X132347928Y-66570514D01*
X132702241Y-67100781D01*
X132825290Y-67183000D01*
X132702241Y-67265219D01*
X132347928Y-67795486D01*
X132223510Y-68420978D01*
X132223510Y-68485022D01*
X132347928Y-69110514D01*
X132702241Y-69640781D01*
X132825290Y-69723000D01*
X132702241Y-69805219D01*
X132347928Y-70335486D01*
X132223510Y-70960978D01*
X132223510Y-71025022D01*
X132347928Y-71650514D01*
X132702241Y-72180781D01*
X132825290Y-72263000D01*
X132702241Y-72345219D01*
X132347928Y-72875486D01*
X132223510Y-73500978D01*
X132223510Y-73565022D01*
X132347928Y-74190514D01*
X132702241Y-74720781D01*
X133232508Y-75075094D01*
X133858000Y-75199512D01*
X134483492Y-75075094D01*
X135013759Y-74720781D01*
X135299593Y-74293000D01*
X147250005Y-74293000D01*
X147420189Y-74547698D01*
X147885736Y-74858767D01*
X148434887Y-74968000D01*
X148491113Y-74968000D01*
X149040264Y-74858767D01*
X149505811Y-74547698D01*
X149816880Y-74082151D01*
X149856684Y-73882039D01*
X154691096Y-73882039D01*
X154851959Y-74270423D01*
X155227866Y-74685389D01*
X155733959Y-74924914D01*
X155956000Y-74803629D01*
X155956000Y-73660000D01*
X156210000Y-73660000D01*
X156210000Y-74803629D01*
X156432041Y-74924914D01*
X156938134Y-74685389D01*
X157314041Y-74270423D01*
X157474904Y-73882039D01*
X157352915Y-73660000D01*
X156210000Y-73660000D01*
X155956000Y-73660000D01*
X154813085Y-73660000D01*
X154691096Y-73882039D01*
X149856684Y-73882039D01*
X149926113Y-73533000D01*
X149816880Y-72983849D01*
X149505811Y-72518302D01*
X149123725Y-72263000D01*
X149505811Y-72007698D01*
X149816880Y-71542151D01*
X149926113Y-70993000D01*
X149816880Y-70443849D01*
X149505811Y-69978302D01*
X149123725Y-69723000D01*
X149505811Y-69467698D01*
X149816880Y-69002151D01*
X149926113Y-68453000D01*
X149816880Y-67903849D01*
X149505811Y-67438302D01*
X149123725Y-67183000D01*
X149505811Y-66927698D01*
X149816880Y-66462151D01*
X149926113Y-65913000D01*
X149816880Y-65363849D01*
X149505811Y-64898302D01*
X149123725Y-64643000D01*
X149505811Y-64387698D01*
X149816880Y-63922151D01*
X149926113Y-63373000D01*
X149816880Y-62823849D01*
X149505811Y-62358302D01*
X149123725Y-62103000D01*
X149505811Y-61847698D01*
X149816880Y-61382151D01*
X149926113Y-60833000D01*
X149816880Y-60283849D01*
X149505811Y-59818302D01*
X149123725Y-59563000D01*
X149505811Y-59307698D01*
X149816880Y-58842151D01*
X149926113Y-58293000D01*
X149816880Y-57743849D01*
X149505811Y-57278302D01*
X149361535Y-57181899D01*
X149498317Y-57156162D01*
X149714441Y-57017090D01*
X149859431Y-56804890D01*
X149910440Y-56553000D01*
X149910440Y-54953000D01*
X149866162Y-54717683D01*
X149727090Y-54501559D01*
X149514890Y-54356569D01*
X149263000Y-54305560D01*
X147663000Y-54305560D01*
X147427683Y-54349838D01*
X147211559Y-54488910D01*
X147066569Y-54701110D01*
X147059992Y-54733587D01*
X146863923Y-54537176D01*
X146336691Y-54318250D01*
X145765813Y-54317752D01*
X145238200Y-54535757D01*
X144834176Y-54939077D01*
X144615250Y-55466309D01*
X144614752Y-56037187D01*
X144832757Y-56564800D01*
X145236077Y-56968824D01*
X145763309Y-57187750D01*
X146334187Y-57188248D01*
X146861800Y-56970243D01*
X147057340Y-56775043D01*
X147059838Y-56788317D01*
X147198910Y-57004441D01*
X147411110Y-57149431D01*
X147566089Y-57180815D01*
X147420189Y-57278302D01*
X147250005Y-57533000D01*
X135299593Y-57533000D01*
X135154547Y-57315923D01*
X135308931Y-57216580D01*
X135453921Y-57004380D01*
X135504930Y-56752490D01*
X135504930Y-56513000D01*
X137217005Y-56513000D01*
X137387189Y-56767698D01*
X137852736Y-57078767D01*
X138401887Y-57188000D01*
X138458113Y-57188000D01*
X139007264Y-57078767D01*
X139472811Y-56767698D01*
X139783880Y-56302151D01*
X139893113Y-55753000D01*
X139783880Y-55203849D01*
X139472811Y-54738302D01*
X139007264Y-54427233D01*
X138458113Y-54318000D01*
X138401887Y-54318000D01*
X137852736Y-54427233D01*
X137387189Y-54738302D01*
X137217005Y-54993000D01*
X135504930Y-54993000D01*
X135504930Y-54753510D01*
X135460652Y-54518193D01*
X135321580Y-54302069D01*
X135109380Y-54157079D01*
X134857490Y-54106070D01*
X132858510Y-54106070D01*
X132623193Y-54150348D01*
X132407069Y-54289420D01*
X132262079Y-54501620D01*
X132211070Y-54753510D01*
X128218000Y-54753510D01*
X128218000Y-53796000D01*
X191822000Y-53796000D01*
X191822000Y-62845103D01*
X191822000Y-62845103D01*
G37*
X191822000Y-62845103D02*
X191474646Y-62613009D01*
X191387000Y-62595575D01*
X191387000Y-60071000D01*
X191329148Y-59780161D01*
X191164401Y-59533599D01*
X190148401Y-58517599D01*
X189901839Y-58352852D01*
X189611000Y-58295000D01*
X163890802Y-58295000D01*
X160811401Y-55215599D01*
X160564839Y-55050852D01*
X160274000Y-54993000D01*
X157295995Y-54993000D01*
X157125811Y-54738302D01*
X156660264Y-54427233D01*
X156111113Y-54318000D01*
X156054887Y-54318000D01*
X155505736Y-54427233D01*
X155040189Y-54738302D01*
X154729120Y-55203849D01*
X154619887Y-55753000D01*
X154729120Y-56302151D01*
X155040189Y-56767698D01*
X155444703Y-57037986D01*
X155227866Y-57140611D01*
X154851959Y-57555577D01*
X154691096Y-57943961D01*
X154813085Y-58166000D01*
X155956000Y-58166000D01*
X155956000Y-58146000D01*
X156210000Y-58146000D01*
X156210000Y-58166000D01*
X157352915Y-58166000D01*
X157474904Y-57943961D01*
X157314041Y-57555577D01*
X156938134Y-57140611D01*
X156721297Y-57037986D01*
X157125811Y-56767698D01*
X157295995Y-56513000D01*
X159959198Y-56513000D01*
X162630198Y-59184000D01*
X157174920Y-59184000D01*
X157314041Y-59030423D01*
X157474904Y-58642039D01*
X157352915Y-58420000D01*
X156210000Y-58420000D01*
X156210000Y-58440000D01*
X155956000Y-58440000D01*
X155956000Y-58420000D01*
X154813085Y-58420000D01*
X154691096Y-58642039D01*
X154851959Y-59030423D01*
X155227866Y-59445389D01*
X155444703Y-59548014D01*
X155040189Y-59818302D01*
X154729120Y-60283849D01*
X154619887Y-60833000D01*
X154729120Y-61382151D01*
X155040189Y-61847698D01*
X155444703Y-62117986D01*
X155227866Y-62220611D01*
X154851959Y-62635577D01*
X154691096Y-63023961D01*
X154813085Y-63246000D01*
X155956000Y-63246000D01*
X155956000Y-63226000D01*
X156210000Y-63226000D01*
X156210000Y-63246000D01*
X156230000Y-63246000D01*
X156230000Y-63500000D01*
X156210000Y-63500000D01*
X156210000Y-63520000D01*
X155956000Y-63520000D01*
X155956000Y-63500000D01*
X154813085Y-63500000D01*
X154691096Y-63722039D01*
X154851959Y-64110423D01*
X155227866Y-64525389D01*
X155444703Y-64628014D01*
X155040189Y-64898302D01*
X154729120Y-65363849D01*
X154619887Y-65913000D01*
X154729120Y-66462151D01*
X155040189Y-66927698D01*
X155444703Y-67197986D01*
X155227866Y-67300611D01*
X154851959Y-67715577D01*
X154691096Y-68103961D01*
X154813085Y-68326000D01*
X155956000Y-68326000D01*
X155956000Y-68306000D01*
X156210000Y-68306000D01*
X156210000Y-68326000D01*
X157352915Y-68326000D01*
X157474904Y-68103961D01*
X157314041Y-67715577D01*
X156938134Y-67300611D01*
X156721297Y-67197986D01*
X157125811Y-66927698D01*
X157436880Y-66462151D01*
X157546113Y-65913000D01*
X157481688Y-65589114D01*
X157990000Y-65080802D01*
X157990000Y-68773198D01*
X156921448Y-69841750D01*
X156721297Y-69708014D01*
X156938134Y-69605389D01*
X157314041Y-69190423D01*
X157474904Y-68802039D01*
X157352915Y-68580000D01*
X156210000Y-68580000D01*
X156210000Y-68600000D01*
X155956000Y-68600000D01*
X155956000Y-68580000D01*
X154813085Y-68580000D01*
X154691096Y-68802039D01*
X154851959Y-69190423D01*
X155227866Y-69605389D01*
X155444703Y-69708014D01*
X155040189Y-69978302D01*
X154729120Y-70443849D01*
X154619887Y-70993000D01*
X154729120Y-71542151D01*
X155040189Y-72007698D01*
X155444703Y-72277986D01*
X155227866Y-72380611D01*
X154851959Y-72795577D01*
X154691096Y-73183961D01*
X154813085Y-73406000D01*
X155956000Y-73406000D01*
X155956000Y-73386000D01*
X156210000Y-73386000D01*
X156210000Y-73406000D01*
X157352915Y-73406000D01*
X157474904Y-73183961D01*
X157314041Y-72795577D01*
X156938134Y-72380611D01*
X156721297Y-72277986D01*
X157125811Y-72007698D01*
X157436880Y-71542151D01*
X157453325Y-71459477D01*
X159260000Y-69652802D01*
X159260000Y-73091198D01*
X155641198Y-76710000D01*
X135636000Y-76710000D01*
X135393414Y-76758254D01*
X135345160Y-76767852D01*
X135098599Y-76932599D01*
X134684638Y-77346560D01*
X132812000Y-77346560D01*
X132576683Y-77390838D01*
X132360559Y-77529910D01*
X132215569Y-77742110D01*
X132164560Y-77994000D01*
X132164560Y-79994000D01*
X132208838Y-80229317D01*
X132347910Y-80445441D01*
X132502329Y-80550951D01*
X132263548Y-80908313D01*
X132139091Y-81534000D01*
X132263548Y-82159687D01*
X132617971Y-82690120D01*
X132808188Y-82817219D01*
X132566078Y-83007683D01*
X132252856Y-83565645D01*
X132221876Y-83693566D01*
X132341223Y-83947000D01*
X133985000Y-83947000D01*
X133985000Y-83927000D01*
X134239000Y-83927000D01*
X134239000Y-83947000D01*
X135882777Y-83947000D01*
X136002124Y-83693566D01*
X135971144Y-83565645D01*
X135657922Y-83007683D01*
X135415812Y-82817219D01*
X135606029Y-82690120D01*
X135870707Y-82294000D01*
X137099198Y-82294000D01*
X138940000Y-84134802D01*
X138940000Y-88839198D01*
X137861198Y-89918000D01*
X135870707Y-89918000D01*
X135720907Y-89693808D01*
X135863441Y-89602090D01*
X136008431Y-89389890D01*
X136059440Y-89138000D01*
X136059440Y-87138000D01*
X136015162Y-86902683D01*
X135876090Y-86686559D01*
X135663890Y-86541569D01*
X135412000Y-86490560D01*
X132812000Y-86490560D01*
X132576683Y-86534838D01*
X132360559Y-86673910D01*
X132215569Y-86886110D01*
X132164560Y-87138000D01*
X132164560Y-89138000D01*
X132208838Y-89373317D01*
X132347910Y-89589441D01*
X132502329Y-89694951D01*
X132263548Y-90052313D01*
X132139091Y-90678000D01*
X132263548Y-91303687D01*
X132617971Y-91834120D01*
X132808188Y-91961219D01*
X132566078Y-92151683D01*
X132252856Y-92709645D01*
X132221876Y-92837566D01*
X132341223Y-93091000D01*
X133985000Y-93091000D01*
X133985000Y-93071000D01*
X134239000Y-93071000D01*
X134239000Y-93091000D01*
X135882777Y-93091000D01*
X136002124Y-92837566D01*
X135971144Y-92709645D01*
X135657922Y-92151683D01*
X135415812Y-91961219D01*
X135606029Y-91834120D01*
X135699653Y-91694000D01*
X165902968Y-91694000D01*
X165996977Y-92166614D01*
X166264691Y-92567277D01*
X166665354Y-92834991D01*
X167137968Y-92929000D01*
X168002032Y-92929000D01*
X168474646Y-92834991D01*
X168875309Y-92567277D01*
X169143023Y-92166614D01*
X169237032Y-91694000D01*
X169143023Y-91221386D01*
X168875309Y-90820723D01*
X168474646Y-90553009D01*
X168002032Y-90459000D01*
X167137968Y-90459000D01*
X166665354Y-90553009D01*
X166264691Y-90820723D01*
X165996977Y-91221386D01*
X165902968Y-91694000D01*
X135699653Y-91694000D01*
X135870707Y-91438000D01*
X138176000Y-91438000D01*
X138466839Y-91380148D01*
X138713401Y-91215401D01*
X140014802Y-89914000D01*
X166189002Y-89914000D01*
X166264691Y-90027277D01*
X166665354Y-90294991D01*
X167137968Y-90389000D01*
X168002032Y-90389000D01*
X168474646Y-90294991D01*
X168875309Y-90027277D01*
X168950998Y-89914000D01*
X176278000Y-89914000D01*
X176278000Y-97282000D01*
X176335852Y-97572839D01*
X176500599Y-97819401D01*
X178659599Y-99978401D01*
X178906161Y-100143148D01*
X179197000Y-100201000D01*
X189285229Y-100201000D01*
X189665354Y-100454991D01*
X190137968Y-100549000D01*
X191002032Y-100549000D01*
X191474646Y-100454991D01*
X191822000Y-100222897D01*
X191822000Y-112029803D01*
X191805400Y-111989628D01*
X190783751Y-110966194D01*
X189448218Y-110411632D01*
X188002126Y-110410370D01*
X186665628Y-110962600D01*
X185642194Y-111984249D01*
X185087632Y-113319782D01*
X185086370Y-114765874D01*
X185638600Y-116102372D01*
X186660249Y-117125806D01*
X186708882Y-117146000D01*
X133334197Y-117146000D01*
X133374372Y-117129400D01*
X134397806Y-116107751D01*
X134952368Y-114772218D01*
X134953630Y-113326126D01*
X134401400Y-111989628D01*
X133379751Y-110966194D01*
X132044218Y-110411632D01*
X130598126Y-110410370D01*
X129261628Y-110962600D01*
X128238194Y-111984249D01*
X128218000Y-112032882D01*
X128218000Y-109220000D01*
X149793887Y-109220000D01*
X149903120Y-109769151D01*
X150214189Y-110234698D01*
X150679736Y-110545767D01*
X151228887Y-110655000D01*
X151285113Y-110655000D01*
X151834264Y-110545767D01*
X152299811Y-110234698D01*
X152469995Y-109980000D01*
X152720198Y-109980000D01*
X153007000Y-110266802D01*
X153007000Y-111295118D01*
X152838708Y-111225237D01*
X152297666Y-111224764D01*
X151797628Y-111431376D01*
X151414720Y-111813616D01*
X151207237Y-112313292D01*
X151206764Y-112854334D01*
X151413376Y-113354372D01*
X151745983Y-113687560D01*
X151660569Y-113687560D01*
X151567000Y-113668948D01*
X151094386Y-113762957D01*
X150693723Y-114030671D01*
X150426009Y-114431334D01*
X150332000Y-114903948D01*
X150332000Y-115666052D01*
X150426009Y-116138666D01*
X150693723Y-116539329D01*
X151094386Y-116807043D01*
X151567000Y-116901052D01*
X151660569Y-116882440D01*
X152767000Y-116882440D01*
X153002317Y-116838162D01*
X153039728Y-116814088D01*
X153065110Y-116831431D01*
X153317000Y-116882440D01*
X154817000Y-116882440D01*
X155052317Y-116838162D01*
X155063979Y-116830658D01*
X155065110Y-116831431D01*
X155317000Y-116882440D01*
X156817000Y-116882440D01*
X157052317Y-116838162D01*
X157089728Y-116814088D01*
X157115110Y-116831431D01*
X157367000Y-116882440D01*
X158473431Y-116882440D01*
X158567000Y-116901052D01*
X159039614Y-116807043D01*
X159440277Y-116539329D01*
X159707991Y-116138666D01*
X159802000Y-115666052D01*
X159802000Y-114903948D01*
X159707991Y-114431334D01*
X159440277Y-114030671D01*
X159039614Y-113762957D01*
X158567000Y-113668948D01*
X158473431Y-113687560D01*
X158387525Y-113687560D01*
X158719280Y-113356384D01*
X158926763Y-112856708D01*
X158927236Y-112315666D01*
X158720624Y-111815628D01*
X158338384Y-111432720D01*
X157838708Y-111225237D01*
X157297666Y-111224764D01*
X156931207Y-111376182D01*
X156926698Y-111371673D01*
X156693309Y-111275000D01*
X156625750Y-111275000D01*
X156467000Y-111433750D01*
X156467000Y-111578482D01*
X156455327Y-111550301D01*
X156276698Y-111371673D01*
X156154170Y-111320920D01*
X156108250Y-111275000D01*
X155975750Y-111275000D01*
X155929830Y-111320920D01*
X155807302Y-111371673D01*
X155724748Y-111454226D01*
X155518890Y-111313569D01*
X155491215Y-111307965D01*
X155458250Y-111275000D01*
X155390691Y-111275000D01*
X155370247Y-111283468D01*
X155267000Y-111262560D01*
X154867000Y-111262560D01*
X154737411Y-111286944D01*
X154617000Y-111262560D01*
X154527000Y-111262560D01*
X154527000Y-109952000D01*
X154469148Y-109661161D01*
X154469148Y-109661160D01*
X154304401Y-109414599D01*
X153572401Y-108682599D01*
X153325839Y-108517852D01*
X153035000Y-108460000D01*
X152469995Y-108460000D01*
X152299811Y-108205302D01*
X152017000Y-108016333D01*
X152017000Y-105568750D01*
X154802000Y-105568750D01*
X154802000Y-106309310D01*
X154898673Y-106542699D01*
X155077302Y-106721327D01*
X155310691Y-106818000D01*
X156051250Y-106818000D01*
X156210000Y-106659250D01*
X156210000Y-105410000D01*
X154960750Y-105410000D01*
X154802000Y-105568750D01*
X152017000Y-105568750D01*
X152017000Y-104256690D01*
X154802000Y-104256690D01*
X154802000Y-104997250D01*
X154960750Y-105156000D01*
X156210000Y-105156000D01*
X156210000Y-103906750D01*
X156464000Y-103906750D01*
X156464000Y-105156000D01*
X156484000Y-105156000D01*
X156484000Y-105410000D01*
X156464000Y-105410000D01*
X156464000Y-106659250D01*
X156622750Y-106818000D01*
X157363309Y-106818000D01*
X157596698Y-106721327D01*
X157775327Y-106542699D01*
X157831119Y-106408006D01*
X158006357Y-106583551D01*
X158117000Y-106629494D01*
X158117000Y-107981354D01*
X158065200Y-108002757D01*
X157661176Y-108406077D01*
X157442250Y-108933309D01*
X157441752Y-109504187D01*
X157659757Y-110031800D01*
X158063077Y-110435824D01*
X158590309Y-110654750D01*
X159161187Y-110655248D01*
X159688800Y-110437243D01*
X160092824Y-110033923D01*
X160311750Y-109506691D01*
X160312248Y-108935813D01*
X160094243Y-108408200D01*
X159690923Y-108004176D01*
X159637000Y-107981785D01*
X159637000Y-106629846D01*
X159745371Y-106585068D01*
X160177551Y-106153643D01*
X160411733Y-105589670D01*
X160412265Y-104979009D01*
X160179068Y-104414629D01*
X159747643Y-103982449D01*
X159183670Y-103748267D01*
X158573009Y-103747735D01*
X158008629Y-103980932D01*
X157831159Y-104158092D01*
X157775327Y-104023301D01*
X157596698Y-103844673D01*
X157363309Y-103748000D01*
X156622750Y-103748000D01*
X156464000Y-103906750D01*
X156210000Y-103906750D01*
X156051250Y-103748000D01*
X155310691Y-103748000D01*
X155077302Y-103844673D01*
X154898673Y-104023301D01*
X154802000Y-104256690D01*
X152017000Y-104256690D01*
X152017000Y-102803802D01*
X154619802Y-100201000D01*
X166285229Y-100201000D01*
X166665354Y-100454991D01*
X167137968Y-100549000D01*
X168002032Y-100549000D01*
X168474646Y-100454991D01*
X168875309Y-100187277D01*
X169143023Y-99786614D01*
X169237032Y-99314000D01*
X169143023Y-98841386D01*
X168875309Y-98440723D01*
X168474646Y-98173009D01*
X168002032Y-98079000D01*
X167137968Y-98079000D01*
X166665354Y-98173009D01*
X166264691Y-98440723D01*
X166104143Y-98681000D01*
X154305000Y-98681000D01*
X154014161Y-98738852D01*
X153767599Y-98903599D01*
X150719599Y-101951599D01*
X150554852Y-102198161D01*
X150497000Y-102489000D01*
X150497000Y-108016333D01*
X150214189Y-108205302D01*
X149903120Y-108670849D01*
X149793887Y-109220000D01*
X128218000Y-109220000D01*
X128218000Y-97091609D01*
X165976538Y-97091609D01*
X165980408Y-97129281D01*
X166206920Y-97557474D01*
X166580053Y-97866390D01*
X167043000Y-98009000D01*
X167443000Y-98009000D01*
X167443000Y-96901000D01*
X167697000Y-96901000D01*
X167697000Y-98009000D01*
X168097000Y-98009000D01*
X168559947Y-97866390D01*
X168933080Y-97557474D01*
X169159592Y-97129281D01*
X169163462Y-97091609D01*
X169038731Y-96901000D01*
X167697000Y-96901000D01*
X167443000Y-96901000D01*
X166101269Y-96901000D01*
X165976538Y-97091609D01*
X128218000Y-97091609D01*
X128218000Y-96456391D01*
X165976538Y-96456391D01*
X166101269Y-96647000D01*
X167443000Y-96647000D01*
X167443000Y-95539000D01*
X167697000Y-95539000D01*
X167697000Y-96647000D01*
X169038731Y-96647000D01*
X169163462Y-96456391D01*
X169159592Y-96418719D01*
X168933080Y-95990526D01*
X168559947Y-95681610D01*
X168097000Y-95539000D01*
X167697000Y-95539000D01*
X167443000Y-95539000D01*
X167043000Y-95539000D01*
X166580053Y-95681610D01*
X166206920Y-95990526D01*
X165980408Y-96418719D01*
X165976538Y-96456391D01*
X128218000Y-96456391D01*
X128218000Y-93598434D01*
X132221876Y-93598434D01*
X132252856Y-93726355D01*
X132566078Y-94284317D01*
X133068980Y-94679942D01*
X133685000Y-94853000D01*
X133985000Y-94853000D01*
X133985000Y-93345000D01*
X134239000Y-93345000D01*
X134239000Y-94853000D01*
X134539000Y-94853000D01*
X135155020Y-94679942D01*
X135657922Y-94284317D01*
X135686168Y-94234000D01*
X165902968Y-94234000D01*
X165996977Y-94706614D01*
X166264691Y-95107277D01*
X166665354Y-95374991D01*
X167137968Y-95469000D01*
X168002032Y-95469000D01*
X168474646Y-95374991D01*
X168875309Y-95107277D01*
X169143023Y-94706614D01*
X169237032Y-94234000D01*
X169143023Y-93761386D01*
X168875309Y-93360723D01*
X168474646Y-93093009D01*
X168002032Y-92999000D01*
X167137968Y-92999000D01*
X166665354Y-93093009D01*
X166264691Y-93360723D01*
X165996977Y-93761386D01*
X165902968Y-94234000D01*
X135686168Y-94234000D01*
X135971144Y-93726355D01*
X136002124Y-93598434D01*
X135882777Y-93345000D01*
X134239000Y-93345000D01*
X133985000Y-93345000D01*
X132341223Y-93345000D01*
X132221876Y-93598434D01*
X128218000Y-93598434D01*
X128218000Y-84454434D01*
X132221876Y-84454434D01*
X132252856Y-84582355D01*
X132566078Y-85140317D01*
X133068980Y-85535942D01*
X133685000Y-85709000D01*
X133985000Y-85709000D01*
X133985000Y-84201000D01*
X134239000Y-84201000D01*
X134239000Y-85709000D01*
X134539000Y-85709000D01*
X135155020Y-85535942D01*
X135657922Y-85140317D01*
X135971144Y-84582355D01*
X136002124Y-84454434D01*
X135882777Y-84201000D01*
X134239000Y-84201000D01*
X133985000Y-84201000D01*
X132341223Y-84201000D01*
X132221876Y-84454434D01*
X128218000Y-84454434D01*
X128218000Y-54753510D01*
X132211070Y-54753510D01*
X132211070Y-56752490D01*
X132255348Y-56987807D01*
X132394420Y-57203931D01*
X132560473Y-57317390D01*
X132347928Y-57635486D01*
X132223510Y-58260978D01*
X132223510Y-58325022D01*
X132347928Y-58950514D01*
X132702241Y-59480781D01*
X132825290Y-59563000D01*
X132702241Y-59645219D01*
X132347928Y-60175486D01*
X132223510Y-60800978D01*
X132223510Y-60865022D01*
X132347928Y-61490514D01*
X132702241Y-62020781D01*
X132825290Y-62103000D01*
X132702241Y-62185219D01*
X132347928Y-62715486D01*
X132223510Y-63340978D01*
X132223510Y-63405022D01*
X132347928Y-64030514D01*
X132702241Y-64560781D01*
X132825290Y-64643000D01*
X132702241Y-64725219D01*
X132347928Y-65255486D01*
X132223510Y-65880978D01*
X132223510Y-65945022D01*
X132347928Y-66570514D01*
X132702241Y-67100781D01*
X132825290Y-67183000D01*
X132702241Y-67265219D01*
X132347928Y-67795486D01*
X132223510Y-68420978D01*
X132223510Y-68485022D01*
X132347928Y-69110514D01*
X132702241Y-69640781D01*
X132825290Y-69723000D01*
X132702241Y-69805219D01*
X132347928Y-70335486D01*
X132223510Y-70960978D01*
X132223510Y-71025022D01*
X132347928Y-71650514D01*
X132702241Y-72180781D01*
X132825290Y-72263000D01*
X132702241Y-72345219D01*
X132347928Y-72875486D01*
X132223510Y-73500978D01*
X132223510Y-73565022D01*
X132347928Y-74190514D01*
X132702241Y-74720781D01*
X133232508Y-75075094D01*
X133858000Y-75199512D01*
X134483492Y-75075094D01*
X135013759Y-74720781D01*
X135299593Y-74293000D01*
X147250005Y-74293000D01*
X147420189Y-74547698D01*
X147885736Y-74858767D01*
X148434887Y-74968000D01*
X148491113Y-74968000D01*
X149040264Y-74858767D01*
X149505811Y-74547698D01*
X149816880Y-74082151D01*
X149856684Y-73882039D01*
X154691096Y-73882039D01*
X154851959Y-74270423D01*
X155227866Y-74685389D01*
X155733959Y-74924914D01*
X155956000Y-74803629D01*
X155956000Y-73660000D01*
X156210000Y-73660000D01*
X156210000Y-74803629D01*
X156432041Y-74924914D01*
X156938134Y-74685389D01*
X157314041Y-74270423D01*
X157474904Y-73882039D01*
X157352915Y-73660000D01*
X156210000Y-73660000D01*
X155956000Y-73660000D01*
X154813085Y-73660000D01*
X154691096Y-73882039D01*
X149856684Y-73882039D01*
X149926113Y-73533000D01*
X149816880Y-72983849D01*
X149505811Y-72518302D01*
X149123725Y-72263000D01*
X149505811Y-72007698D01*
X149816880Y-71542151D01*
X149926113Y-70993000D01*
X149816880Y-70443849D01*
X149505811Y-69978302D01*
X149123725Y-69723000D01*
X149505811Y-69467698D01*
X149816880Y-69002151D01*
X149926113Y-68453000D01*
X149816880Y-67903849D01*
X149505811Y-67438302D01*
X149123725Y-67183000D01*
X149505811Y-66927698D01*
X149816880Y-66462151D01*
X149926113Y-65913000D01*
X149816880Y-65363849D01*
X149505811Y-64898302D01*
X149123725Y-64643000D01*
X149505811Y-64387698D01*
X149816880Y-63922151D01*
X149926113Y-63373000D01*
X149816880Y-62823849D01*
X149505811Y-62358302D01*
X149123725Y-62103000D01*
X149505811Y-61847698D01*
X149816880Y-61382151D01*
X149926113Y-60833000D01*
X149816880Y-60283849D01*
X149505811Y-59818302D01*
X149123725Y-59563000D01*
X149505811Y-59307698D01*
X149816880Y-58842151D01*
X149926113Y-58293000D01*
X149816880Y-57743849D01*
X149505811Y-57278302D01*
X149361535Y-57181899D01*
X149498317Y-57156162D01*
X149714441Y-57017090D01*
X149859431Y-56804890D01*
X149910440Y-56553000D01*
X149910440Y-54953000D01*
X149866162Y-54717683D01*
X149727090Y-54501559D01*
X149514890Y-54356569D01*
X149263000Y-54305560D01*
X147663000Y-54305560D01*
X147427683Y-54349838D01*
X147211559Y-54488910D01*
X147066569Y-54701110D01*
X147059992Y-54733587D01*
X146863923Y-54537176D01*
X146336691Y-54318250D01*
X145765813Y-54317752D01*
X145238200Y-54535757D01*
X144834176Y-54939077D01*
X144615250Y-55466309D01*
X144614752Y-56037187D01*
X144832757Y-56564800D01*
X145236077Y-56968824D01*
X145763309Y-57187750D01*
X146334187Y-57188248D01*
X146861800Y-56970243D01*
X147057340Y-56775043D01*
X147059838Y-56788317D01*
X147198910Y-57004441D01*
X147411110Y-57149431D01*
X147566089Y-57180815D01*
X147420189Y-57278302D01*
X147250005Y-57533000D01*
X135299593Y-57533000D01*
X135154547Y-57315923D01*
X135308931Y-57216580D01*
X135453921Y-57004380D01*
X135504930Y-56752490D01*
X135504930Y-56513000D01*
X137217005Y-56513000D01*
X137387189Y-56767698D01*
X137852736Y-57078767D01*
X138401887Y-57188000D01*
X138458113Y-57188000D01*
X139007264Y-57078767D01*
X139472811Y-56767698D01*
X139783880Y-56302151D01*
X139893113Y-55753000D01*
X139783880Y-55203849D01*
X139472811Y-54738302D01*
X139007264Y-54427233D01*
X138458113Y-54318000D01*
X138401887Y-54318000D01*
X137852736Y-54427233D01*
X137387189Y-54738302D01*
X137217005Y-54993000D01*
X135504930Y-54993000D01*
X135504930Y-54753510D01*
X135460652Y-54518193D01*
X135321580Y-54302069D01*
X135109380Y-54157079D01*
X134857490Y-54106070D01*
X132858510Y-54106070D01*
X132623193Y-54150348D01*
X132407069Y-54289420D01*
X132262079Y-54501620D01*
X132211070Y-54753510D01*
X128218000Y-54753510D01*
X128218000Y-53796000D01*
X191822000Y-53796000D01*
X191822000Y-62845103D01*
G36*
X189665354Y-77594991D02*
X190137968Y-77689000D01*
X191002032Y-77689000D01*
X191474646Y-77594991D01*
X191822000Y-77362897D01*
X191822000Y-78118563D01*
X191559947Y-77901610D01*
X191097000Y-77759000D01*
X190697000Y-77759000D01*
X190697000Y-78867000D01*
X190717000Y-78867000D01*
X190717000Y-79121000D01*
X190697000Y-79121000D01*
X190697000Y-80229000D01*
X191097000Y-80229000D01*
X191559947Y-80086390D01*
X191822000Y-79869437D01*
X191822000Y-80625103D01*
X191474646Y-80393009D01*
X191002032Y-80299000D01*
X190137968Y-80299000D01*
X189665354Y-80393009D01*
X189264691Y-80660723D01*
X188996977Y-81061386D01*
X188902968Y-81534000D01*
X188996977Y-82006614D01*
X189264691Y-82407277D01*
X189665354Y-82674991D01*
X190137968Y-82769000D01*
X191002032Y-82769000D01*
X191474646Y-82674991D01*
X191822000Y-82442897D01*
X191822000Y-83165103D01*
X191474646Y-82933009D01*
X191002032Y-82839000D01*
X190137968Y-82839000D01*
X189665354Y-82933009D01*
X189264691Y-83200723D01*
X188996977Y-83601386D01*
X188902968Y-84074000D01*
X188996977Y-84546614D01*
X189264691Y-84947277D01*
X189665354Y-85214991D01*
X190137968Y-85309000D01*
X191002032Y-85309000D01*
X191474646Y-85214991D01*
X191822000Y-84982897D01*
X191822000Y-85705103D01*
X191474646Y-85473009D01*
X191002032Y-85379000D01*
X190137968Y-85379000D01*
X189665354Y-85473009D01*
X189264691Y-85740723D01*
X188996977Y-86141386D01*
X188902968Y-86614000D01*
X188996977Y-87086614D01*
X189264691Y-87487277D01*
X189665354Y-87754991D01*
X190137968Y-87849000D01*
X191002032Y-87849000D01*
X191474646Y-87754991D01*
X191822000Y-87522897D01*
X191822000Y-88245103D01*
X191474646Y-88013009D01*
X191002032Y-87919000D01*
X190137968Y-87919000D01*
X189665354Y-88013009D01*
X189264691Y-88280723D01*
X188996977Y-88681386D01*
X188902968Y-89154000D01*
X188996977Y-89626614D01*
X189264691Y-90027277D01*
X189665354Y-90294991D01*
X190137968Y-90389000D01*
X191002032Y-90389000D01*
X191474646Y-90294991D01*
X191822000Y-90062897D01*
X191822000Y-90785103D01*
X191474646Y-90553009D01*
X191002032Y-90459000D01*
X190137968Y-90459000D01*
X189665354Y-90553009D01*
X189264691Y-90820723D01*
X188996977Y-91221386D01*
X188902968Y-91694000D01*
X188996977Y-92166614D01*
X189264691Y-92567277D01*
X189665354Y-92834991D01*
X190137968Y-92929000D01*
X191002032Y-92929000D01*
X191474646Y-92834991D01*
X191822000Y-92602897D01*
X191822000Y-93325103D01*
X191474646Y-93093009D01*
X191002032Y-92999000D01*
X190137968Y-92999000D01*
X189665354Y-93093009D01*
X189264691Y-93360723D01*
X188996977Y-93761386D01*
X188902968Y-94234000D01*
X188996977Y-94706614D01*
X189264691Y-95107277D01*
X189665354Y-95374991D01*
X190137968Y-95469000D01*
X191002032Y-95469000D01*
X191474646Y-95374991D01*
X191822000Y-95142897D01*
X191822000Y-95898563D01*
X191559947Y-95681610D01*
X191097000Y-95539000D01*
X190697000Y-95539000D01*
X190697000Y-96647000D01*
X190717000Y-96647000D01*
X190717000Y-96901000D01*
X190697000Y-96901000D01*
X190697000Y-98009000D01*
X191097000Y-98009000D01*
X191559947Y-97866390D01*
X191822000Y-97649437D01*
X191822000Y-98405103D01*
X191474646Y-98173009D01*
X191002032Y-98079000D01*
X190137968Y-98079000D01*
X189665354Y-98173009D01*
X189264691Y-98440723D01*
X189104143Y-98681000D01*
X179511802Y-98681000D01*
X177922411Y-97091609D01*
X188976538Y-97091609D01*
X188980408Y-97129281D01*
X189206920Y-97557474D01*
X189580053Y-97866390D01*
X190043000Y-98009000D01*
X190443000Y-98009000D01*
X190443000Y-96901000D01*
X189101269Y-96901000D01*
X188976538Y-97091609D01*
X177922411Y-97091609D01*
X177798000Y-96967198D01*
X177798000Y-96456391D01*
X188976538Y-96456391D01*
X189101269Y-96647000D01*
X190443000Y-96647000D01*
X190443000Y-95539000D01*
X190043000Y-95539000D01*
X189580053Y-95681610D01*
X189206920Y-95990526D01*
X188980408Y-96418719D01*
X188976538Y-96456391D01*
X177798000Y-96456391D01*
X177798000Y-79311609D01*
X188976538Y-79311609D01*
X188980408Y-79349281D01*
X189206920Y-79777474D01*
X189580053Y-80086390D01*
X190043000Y-80229000D01*
X190443000Y-80229000D01*
X190443000Y-79121000D01*
X189101269Y-79121000D01*
X188976538Y-79311609D01*
X177798000Y-79311609D01*
X177798000Y-78676391D01*
X188976538Y-78676391D01*
X189101269Y-78867000D01*
X190443000Y-78867000D01*
X190443000Y-77759000D01*
X190043000Y-77759000D01*
X189580053Y-77901610D01*
X189206920Y-78210526D01*
X188980408Y-78638719D01*
X188976538Y-78676391D01*
X177798000Y-78676391D01*
X177798000Y-77341000D01*
X189285229Y-77341000D01*
X189665354Y-77594991D01*
X189665354Y-77594991D01*
G37*
X189665354Y-77594991D02*
X190137968Y-77689000D01*
X191002032Y-77689000D01*
X191474646Y-77594991D01*
X191822000Y-77362897D01*
X191822000Y-78118563D01*
X191559947Y-77901610D01*
X191097000Y-77759000D01*
X190697000Y-77759000D01*
X190697000Y-78867000D01*
X190717000Y-78867000D01*
X190717000Y-79121000D01*
X190697000Y-79121000D01*
X190697000Y-80229000D01*
X191097000Y-80229000D01*
X191559947Y-80086390D01*
X191822000Y-79869437D01*
X191822000Y-80625103D01*
X191474646Y-80393009D01*
X191002032Y-80299000D01*
X190137968Y-80299000D01*
X189665354Y-80393009D01*
X189264691Y-80660723D01*
X188996977Y-81061386D01*
X188902968Y-81534000D01*
X188996977Y-82006614D01*
X189264691Y-82407277D01*
X189665354Y-82674991D01*
X190137968Y-82769000D01*
X191002032Y-82769000D01*
X191474646Y-82674991D01*
X191822000Y-82442897D01*
X191822000Y-83165103D01*
X191474646Y-82933009D01*
X191002032Y-82839000D01*
X190137968Y-82839000D01*
X189665354Y-82933009D01*
X189264691Y-83200723D01*
X188996977Y-83601386D01*
X188902968Y-84074000D01*
X188996977Y-84546614D01*
X189264691Y-84947277D01*
X189665354Y-85214991D01*
X190137968Y-85309000D01*
X191002032Y-85309000D01*
X191474646Y-85214991D01*
X191822000Y-84982897D01*
X191822000Y-85705103D01*
X191474646Y-85473009D01*
X191002032Y-85379000D01*
X190137968Y-85379000D01*
X189665354Y-85473009D01*
X189264691Y-85740723D01*
X188996977Y-86141386D01*
X188902968Y-86614000D01*
X188996977Y-87086614D01*
X189264691Y-87487277D01*
X189665354Y-87754991D01*
X190137968Y-87849000D01*
X191002032Y-87849000D01*
X191474646Y-87754991D01*
X191822000Y-87522897D01*
X191822000Y-88245103D01*
X191474646Y-88013009D01*
X191002032Y-87919000D01*
X190137968Y-87919000D01*
X189665354Y-88013009D01*
X189264691Y-88280723D01*
X188996977Y-88681386D01*
X188902968Y-89154000D01*
X188996977Y-89626614D01*
X189264691Y-90027277D01*
X189665354Y-90294991D01*
X190137968Y-90389000D01*
X191002032Y-90389000D01*
X191474646Y-90294991D01*
X191822000Y-90062897D01*
X191822000Y-90785103D01*
X191474646Y-90553009D01*
X191002032Y-90459000D01*
X190137968Y-90459000D01*
X189665354Y-90553009D01*
X189264691Y-90820723D01*
X188996977Y-91221386D01*
X188902968Y-91694000D01*
X188996977Y-92166614D01*
X189264691Y-92567277D01*
X189665354Y-92834991D01*
X190137968Y-92929000D01*
X191002032Y-92929000D01*
X191474646Y-92834991D01*
X191822000Y-92602897D01*
X191822000Y-93325103D01*
X191474646Y-93093009D01*
X191002032Y-92999000D01*
X190137968Y-92999000D01*
X189665354Y-93093009D01*
X189264691Y-93360723D01*
X188996977Y-93761386D01*
X188902968Y-94234000D01*
X188996977Y-94706614D01*
X189264691Y-95107277D01*
X189665354Y-95374991D01*
X190137968Y-95469000D01*
X191002032Y-95469000D01*
X191474646Y-95374991D01*
X191822000Y-95142897D01*
X191822000Y-95898563D01*
X191559947Y-95681610D01*
X191097000Y-95539000D01*
X190697000Y-95539000D01*
X190697000Y-96647000D01*
X190717000Y-96647000D01*
X190717000Y-96901000D01*
X190697000Y-96901000D01*
X190697000Y-98009000D01*
X191097000Y-98009000D01*
X191559947Y-97866390D01*
X191822000Y-97649437D01*
X191822000Y-98405103D01*
X191474646Y-98173009D01*
X191002032Y-98079000D01*
X190137968Y-98079000D01*
X189665354Y-98173009D01*
X189264691Y-98440723D01*
X189104143Y-98681000D01*
X179511802Y-98681000D01*
X177922411Y-97091609D01*
X188976538Y-97091609D01*
X188980408Y-97129281D01*
X189206920Y-97557474D01*
X189580053Y-97866390D01*
X190043000Y-98009000D01*
X190443000Y-98009000D01*
X190443000Y-96901000D01*
X189101269Y-96901000D01*
X188976538Y-97091609D01*
X177922411Y-97091609D01*
X177798000Y-96967198D01*
X177798000Y-96456391D01*
X188976538Y-96456391D01*
X189101269Y-96647000D01*
X190443000Y-96647000D01*
X190443000Y-95539000D01*
X190043000Y-95539000D01*
X189580053Y-95681610D01*
X189206920Y-95990526D01*
X188980408Y-96418719D01*
X188976538Y-96456391D01*
X177798000Y-96456391D01*
X177798000Y-79311609D01*
X188976538Y-79311609D01*
X188980408Y-79349281D01*
X189206920Y-79777474D01*
X189580053Y-80086390D01*
X190043000Y-80229000D01*
X190443000Y-80229000D01*
X190443000Y-79121000D01*
X189101269Y-79121000D01*
X188976538Y-79311609D01*
X177798000Y-79311609D01*
X177798000Y-78676391D01*
X188976538Y-78676391D01*
X189101269Y-78867000D01*
X190443000Y-78867000D01*
X190443000Y-77759000D01*
X190043000Y-77759000D01*
X189580053Y-77901610D01*
X189206920Y-78210526D01*
X188980408Y-78638719D01*
X188976538Y-78676391D01*
X177798000Y-78676391D01*
X177798000Y-77341000D01*
X189285229Y-77341000D01*
X189665354Y-77594991D01*
G36*
X165996977Y-63281386D02*
X165902968Y-63754000D01*
X165996977Y-64226614D01*
X166264691Y-64627277D01*
X166665354Y-64894991D01*
X167137968Y-64989000D01*
X168002032Y-64989000D01*
X168474646Y-64894991D01*
X168875309Y-64627277D01*
X169143023Y-64226614D01*
X169237032Y-63754000D01*
X169143023Y-63281386D01*
X168948325Y-62990000D01*
X185613198Y-62990000D01*
X185930000Y-63306802D01*
X185930000Y-71882000D01*
X185987852Y-72172839D01*
X186152599Y-72419401D01*
X188184599Y-74451401D01*
X188431161Y-74616148D01*
X188722000Y-74674000D01*
X189189002Y-74674000D01*
X189264691Y-74787277D01*
X189665354Y-75054991D01*
X190137968Y-75149000D01*
X191002032Y-75149000D01*
X191474646Y-75054991D01*
X191822000Y-74822897D01*
X191822000Y-75545103D01*
X191474646Y-75313009D01*
X191002032Y-75219000D01*
X190137968Y-75219000D01*
X189665354Y-75313009D01*
X189264691Y-75580723D01*
X189104143Y-75821000D01*
X177419000Y-75821000D01*
X177128160Y-75878852D01*
X176881599Y-76043599D01*
X176500599Y-76424599D01*
X176335852Y-76671161D01*
X176278000Y-76962000D01*
X176278000Y-88394000D01*
X168950998Y-88394000D01*
X168875309Y-88280723D01*
X168474646Y-88013009D01*
X168002032Y-87919000D01*
X167137968Y-87919000D01*
X166665354Y-88013009D01*
X166264691Y-88280723D01*
X166189002Y-88394000D01*
X140460000Y-88394000D01*
X140460000Y-84793874D01*
X153844370Y-84793874D01*
X154396600Y-86130372D01*
X155418249Y-87153806D01*
X156753782Y-87708368D01*
X158199874Y-87709630D01*
X159536372Y-87157400D01*
X159762557Y-86931609D01*
X165976538Y-86931609D01*
X165980408Y-86969281D01*
X166206920Y-87397474D01*
X166580053Y-87706390D01*
X167043000Y-87849000D01*
X167443000Y-87849000D01*
X167443000Y-86741000D01*
X167697000Y-86741000D01*
X167697000Y-87849000D01*
X168097000Y-87849000D01*
X168559947Y-87706390D01*
X168933080Y-87397474D01*
X169159592Y-86969281D01*
X169163462Y-86931609D01*
X169038731Y-86741000D01*
X167697000Y-86741000D01*
X167443000Y-86741000D01*
X166101269Y-86741000D01*
X165976538Y-86931609D01*
X159762557Y-86931609D01*
X160398885Y-86296391D01*
X165976538Y-86296391D01*
X166101269Y-86487000D01*
X167443000Y-86487000D01*
X167443000Y-85379000D01*
X167697000Y-85379000D01*
X167697000Y-86487000D01*
X169038731Y-86487000D01*
X169163462Y-86296391D01*
X169159592Y-86258719D01*
X168933080Y-85830526D01*
X168559947Y-85521610D01*
X168097000Y-85379000D01*
X167697000Y-85379000D01*
X167443000Y-85379000D01*
X167043000Y-85379000D01*
X166580053Y-85521610D01*
X166206920Y-85830526D01*
X165980408Y-86258719D01*
X165976538Y-86296391D01*
X160398885Y-86296391D01*
X160559806Y-86135751D01*
X161114368Y-84800218D01*
X161115001Y-84074000D01*
X165902968Y-84074000D01*
X165996977Y-84546614D01*
X166264691Y-84947277D01*
X166665354Y-85214991D01*
X167137968Y-85309000D01*
X168002032Y-85309000D01*
X168474646Y-85214991D01*
X168875309Y-84947277D01*
X169143023Y-84546614D01*
X169237032Y-84074000D01*
X169143023Y-83601386D01*
X168875309Y-83200723D01*
X168474646Y-82933009D01*
X168002032Y-82839000D01*
X167137968Y-82839000D01*
X166665354Y-82933009D01*
X166264691Y-83200723D01*
X165996977Y-83601386D01*
X165902968Y-84074000D01*
X161115001Y-84074000D01*
X161115630Y-83354126D01*
X160563400Y-82017628D01*
X160080616Y-81534000D01*
X165902968Y-81534000D01*
X165996977Y-82006614D01*
X166264691Y-82407277D01*
X166665354Y-82674991D01*
X167137968Y-82769000D01*
X168002032Y-82769000D01*
X168474646Y-82674991D01*
X168875309Y-82407277D01*
X169143023Y-82006614D01*
X169237032Y-81534000D01*
X169143023Y-81061386D01*
X168875309Y-80660723D01*
X168474646Y-80393009D01*
X168002032Y-80299000D01*
X167137968Y-80299000D01*
X166665354Y-80393009D01*
X166264691Y-80660723D01*
X165996977Y-81061386D01*
X165902968Y-81534000D01*
X160080616Y-81534000D01*
X159541751Y-80994194D01*
X158206218Y-80439632D01*
X156760126Y-80438370D01*
X155423628Y-80990600D01*
X154400194Y-82012249D01*
X153845632Y-83347782D01*
X153844370Y-84793874D01*
X140460000Y-84793874D01*
X140460000Y-83820000D01*
X140402148Y-83529160D01*
X140237401Y-83282599D01*
X137951401Y-80996599D01*
X137704839Y-80831852D01*
X137414000Y-80774000D01*
X135870707Y-80774000D01*
X135720907Y-80549808D01*
X135863441Y-80458090D01*
X136008431Y-80245890D01*
X136059440Y-79994000D01*
X136059440Y-78994000D01*
X165902968Y-78994000D01*
X165996977Y-79466614D01*
X166264691Y-79867277D01*
X166665354Y-80134991D01*
X167137968Y-80229000D01*
X168002032Y-80229000D01*
X168474646Y-80134991D01*
X168875309Y-79867277D01*
X169143023Y-79466614D01*
X169237032Y-78994000D01*
X169143023Y-78521386D01*
X168875309Y-78120723D01*
X168474646Y-77853009D01*
X168002032Y-77759000D01*
X167137968Y-77759000D01*
X166665354Y-77853009D01*
X166264691Y-78120723D01*
X165996977Y-78521386D01*
X165902968Y-78994000D01*
X136059440Y-78994000D01*
X136059440Y-78230000D01*
X155956000Y-78230000D01*
X156246839Y-78172148D01*
X156493401Y-78007401D01*
X158046802Y-76454000D01*
X165902968Y-76454000D01*
X165996977Y-76926614D01*
X166264691Y-77327277D01*
X166665354Y-77594991D01*
X167137968Y-77689000D01*
X168002032Y-77689000D01*
X168474646Y-77594991D01*
X168875309Y-77327277D01*
X169143023Y-76926614D01*
X169237032Y-76454000D01*
X169143023Y-75981386D01*
X168875309Y-75580723D01*
X168474646Y-75313009D01*
X168002032Y-75219000D01*
X167137968Y-75219000D01*
X166665354Y-75313009D01*
X166264691Y-75580723D01*
X165996977Y-75981386D01*
X165902968Y-76454000D01*
X158046802Y-76454000D01*
X160557401Y-73943401D01*
X160577046Y-73914000D01*
X165902968Y-73914000D01*
X165996977Y-74386614D01*
X166264691Y-74787277D01*
X166665354Y-75054991D01*
X167137968Y-75149000D01*
X168002032Y-75149000D01*
X168474646Y-75054991D01*
X168875309Y-74787277D01*
X169143023Y-74386614D01*
X169237032Y-73914000D01*
X169143023Y-73441386D01*
X168875309Y-73040723D01*
X168474646Y-72773009D01*
X168002032Y-72679000D01*
X167137968Y-72679000D01*
X166665354Y-72773009D01*
X166264691Y-73040723D01*
X165996977Y-73441386D01*
X165902968Y-73914000D01*
X160577046Y-73914000D01*
X160722148Y-73696839D01*
X160780000Y-73406000D01*
X160780000Y-71374000D01*
X165902968Y-71374000D01*
X165996977Y-71846614D01*
X166264691Y-72247277D01*
X166665354Y-72514991D01*
X167137968Y-72609000D01*
X168002032Y-72609000D01*
X168474646Y-72514991D01*
X168875309Y-72247277D01*
X169143023Y-71846614D01*
X169237032Y-71374000D01*
X169143023Y-70901386D01*
X168875309Y-70500723D01*
X168474646Y-70233009D01*
X168002032Y-70139000D01*
X167137968Y-70139000D01*
X166665354Y-70233009D01*
X166264691Y-70500723D01*
X165996977Y-70901386D01*
X165902968Y-71374000D01*
X160780000Y-71374000D01*
X160780000Y-68834000D01*
X165902968Y-68834000D01*
X165996977Y-69306614D01*
X166264691Y-69707277D01*
X166665354Y-69974991D01*
X167137968Y-70069000D01*
X168002032Y-70069000D01*
X168474646Y-69974991D01*
X168875309Y-69707277D01*
X169143023Y-69306614D01*
X169237032Y-68834000D01*
X169143023Y-68361386D01*
X168875309Y-67960723D01*
X168474646Y-67693009D01*
X168002032Y-67599000D01*
X167137968Y-67599000D01*
X166665354Y-67693009D01*
X166264691Y-67960723D01*
X165996977Y-68361386D01*
X165902968Y-68834000D01*
X160780000Y-68834000D01*
X160780000Y-66294000D01*
X165902968Y-66294000D01*
X165996977Y-66766614D01*
X166264691Y-67167277D01*
X166665354Y-67434991D01*
X167137968Y-67529000D01*
X168002032Y-67529000D01*
X168474646Y-67434991D01*
X168875309Y-67167277D01*
X169143023Y-66766614D01*
X169237032Y-66294000D01*
X169143023Y-65821386D01*
X168875309Y-65420723D01*
X168474646Y-65153009D01*
X168002032Y-65059000D01*
X167137968Y-65059000D01*
X166665354Y-65153009D01*
X166264691Y-65420723D01*
X165996977Y-65821386D01*
X165902968Y-66294000D01*
X160780000Y-66294000D01*
X160780000Y-63052802D01*
X160842802Y-62990000D01*
X166191675Y-62990000D01*
X165996977Y-63281386D01*
X165996977Y-63281386D01*
G37*
X165996977Y-63281386D02*
X165902968Y-63754000D01*
X165996977Y-64226614D01*
X166264691Y-64627277D01*
X166665354Y-64894991D01*
X167137968Y-64989000D01*
X168002032Y-64989000D01*
X168474646Y-64894991D01*
X168875309Y-64627277D01*
X169143023Y-64226614D01*
X169237032Y-63754000D01*
X169143023Y-63281386D01*
X168948325Y-62990000D01*
X185613198Y-62990000D01*
X185930000Y-63306802D01*
X185930000Y-71882000D01*
X185987852Y-72172839D01*
X186152599Y-72419401D01*
X188184599Y-74451401D01*
X188431161Y-74616148D01*
X188722000Y-74674000D01*
X189189002Y-74674000D01*
X189264691Y-74787277D01*
X189665354Y-75054991D01*
X190137968Y-75149000D01*
X191002032Y-75149000D01*
X191474646Y-75054991D01*
X191822000Y-74822897D01*
X191822000Y-75545103D01*
X191474646Y-75313009D01*
X191002032Y-75219000D01*
X190137968Y-75219000D01*
X189665354Y-75313009D01*
X189264691Y-75580723D01*
X189104143Y-75821000D01*
X177419000Y-75821000D01*
X177128160Y-75878852D01*
X176881599Y-76043599D01*
X176500599Y-76424599D01*
X176335852Y-76671161D01*
X176278000Y-76962000D01*
X176278000Y-88394000D01*
X168950998Y-88394000D01*
X168875309Y-88280723D01*
X168474646Y-88013009D01*
X168002032Y-87919000D01*
X167137968Y-87919000D01*
X166665354Y-88013009D01*
X166264691Y-88280723D01*
X166189002Y-88394000D01*
X140460000Y-88394000D01*
X140460000Y-84793874D01*
X153844370Y-84793874D01*
X154396600Y-86130372D01*
X155418249Y-87153806D01*
X156753782Y-87708368D01*
X158199874Y-87709630D01*
X159536372Y-87157400D01*
X159762557Y-86931609D01*
X165976538Y-86931609D01*
X165980408Y-86969281D01*
X166206920Y-87397474D01*
X166580053Y-87706390D01*
X167043000Y-87849000D01*
X167443000Y-87849000D01*
X167443000Y-86741000D01*
X167697000Y-86741000D01*
X167697000Y-87849000D01*
X168097000Y-87849000D01*
X168559947Y-87706390D01*
X168933080Y-87397474D01*
X169159592Y-86969281D01*
X169163462Y-86931609D01*
X169038731Y-86741000D01*
X167697000Y-86741000D01*
X167443000Y-86741000D01*
X166101269Y-86741000D01*
X165976538Y-86931609D01*
X159762557Y-86931609D01*
X160398885Y-86296391D01*
X165976538Y-86296391D01*
X166101269Y-86487000D01*
X167443000Y-86487000D01*
X167443000Y-85379000D01*
X167697000Y-85379000D01*
X167697000Y-86487000D01*
X169038731Y-86487000D01*
X169163462Y-86296391D01*
X169159592Y-86258719D01*
X168933080Y-85830526D01*
X168559947Y-85521610D01*
X168097000Y-85379000D01*
X167697000Y-85379000D01*
X167443000Y-85379000D01*
X167043000Y-85379000D01*
X166580053Y-85521610D01*
X166206920Y-85830526D01*
X165980408Y-86258719D01*
X165976538Y-86296391D01*
X160398885Y-86296391D01*
X160559806Y-86135751D01*
X161114368Y-84800218D01*
X161115001Y-84074000D01*
X165902968Y-84074000D01*
X165996977Y-84546614D01*
X166264691Y-84947277D01*
X166665354Y-85214991D01*
X167137968Y-85309000D01*
X168002032Y-85309000D01*
X168474646Y-85214991D01*
X168875309Y-84947277D01*
X169143023Y-84546614D01*
X169237032Y-84074000D01*
X169143023Y-83601386D01*
X168875309Y-83200723D01*
X168474646Y-82933009D01*
X168002032Y-82839000D01*
X167137968Y-82839000D01*
X166665354Y-82933009D01*
X166264691Y-83200723D01*
X165996977Y-83601386D01*
X165902968Y-84074000D01*
X161115001Y-84074000D01*
X161115630Y-83354126D01*
X160563400Y-82017628D01*
X160080616Y-81534000D01*
X165902968Y-81534000D01*
X165996977Y-82006614D01*
X166264691Y-82407277D01*
X166665354Y-82674991D01*
X167137968Y-82769000D01*
X168002032Y-82769000D01*
X168474646Y-82674991D01*
X168875309Y-82407277D01*
X169143023Y-82006614D01*
X169237032Y-81534000D01*
X169143023Y-81061386D01*
X168875309Y-80660723D01*
X168474646Y-80393009D01*
X168002032Y-80299000D01*
X167137968Y-80299000D01*
X166665354Y-80393009D01*
X166264691Y-80660723D01*
X165996977Y-81061386D01*
X165902968Y-81534000D01*
X160080616Y-81534000D01*
X159541751Y-80994194D01*
X158206218Y-80439632D01*
X156760126Y-80438370D01*
X155423628Y-80990600D01*
X154400194Y-82012249D01*
X153845632Y-83347782D01*
X153844370Y-84793874D01*
X140460000Y-84793874D01*
X140460000Y-83820000D01*
X140402148Y-83529160D01*
X140237401Y-83282599D01*
X137951401Y-80996599D01*
X137704839Y-80831852D01*
X137414000Y-80774000D01*
X135870707Y-80774000D01*
X135720907Y-80549808D01*
X135863441Y-80458090D01*
X136008431Y-80245890D01*
X136059440Y-79994000D01*
X136059440Y-78994000D01*
X165902968Y-78994000D01*
X165996977Y-79466614D01*
X166264691Y-79867277D01*
X166665354Y-80134991D01*
X167137968Y-80229000D01*
X168002032Y-80229000D01*
X168474646Y-80134991D01*
X168875309Y-79867277D01*
X169143023Y-79466614D01*
X169237032Y-78994000D01*
X169143023Y-78521386D01*
X168875309Y-78120723D01*
X168474646Y-77853009D01*
X168002032Y-77759000D01*
X167137968Y-77759000D01*
X166665354Y-77853009D01*
X166264691Y-78120723D01*
X165996977Y-78521386D01*
X165902968Y-78994000D01*
X136059440Y-78994000D01*
X136059440Y-78230000D01*
X155956000Y-78230000D01*
X156246839Y-78172148D01*
X156493401Y-78007401D01*
X158046802Y-76454000D01*
X165902968Y-76454000D01*
X165996977Y-76926614D01*
X166264691Y-77327277D01*
X166665354Y-77594991D01*
X167137968Y-77689000D01*
X168002032Y-77689000D01*
X168474646Y-77594991D01*
X168875309Y-77327277D01*
X169143023Y-76926614D01*
X169237032Y-76454000D01*
X169143023Y-75981386D01*
X168875309Y-75580723D01*
X168474646Y-75313009D01*
X168002032Y-75219000D01*
X167137968Y-75219000D01*
X166665354Y-75313009D01*
X166264691Y-75580723D01*
X165996977Y-75981386D01*
X165902968Y-76454000D01*
X158046802Y-76454000D01*
X160557401Y-73943401D01*
X160577046Y-73914000D01*
X165902968Y-73914000D01*
X165996977Y-74386614D01*
X166264691Y-74787277D01*
X166665354Y-75054991D01*
X167137968Y-75149000D01*
X168002032Y-75149000D01*
X168474646Y-75054991D01*
X168875309Y-74787277D01*
X169143023Y-74386614D01*
X169237032Y-73914000D01*
X169143023Y-73441386D01*
X168875309Y-73040723D01*
X168474646Y-72773009D01*
X168002032Y-72679000D01*
X167137968Y-72679000D01*
X166665354Y-72773009D01*
X166264691Y-73040723D01*
X165996977Y-73441386D01*
X165902968Y-73914000D01*
X160577046Y-73914000D01*
X160722148Y-73696839D01*
X160780000Y-73406000D01*
X160780000Y-71374000D01*
X165902968Y-71374000D01*
X165996977Y-71846614D01*
X166264691Y-72247277D01*
X166665354Y-72514991D01*
X167137968Y-72609000D01*
X168002032Y-72609000D01*
X168474646Y-72514991D01*
X168875309Y-72247277D01*
X169143023Y-71846614D01*
X169237032Y-71374000D01*
X169143023Y-70901386D01*
X168875309Y-70500723D01*
X168474646Y-70233009D01*
X168002032Y-70139000D01*
X167137968Y-70139000D01*
X166665354Y-70233009D01*
X166264691Y-70500723D01*
X165996977Y-70901386D01*
X165902968Y-71374000D01*
X160780000Y-71374000D01*
X160780000Y-68834000D01*
X165902968Y-68834000D01*
X165996977Y-69306614D01*
X166264691Y-69707277D01*
X166665354Y-69974991D01*
X167137968Y-70069000D01*
X168002032Y-70069000D01*
X168474646Y-69974991D01*
X168875309Y-69707277D01*
X169143023Y-69306614D01*
X169237032Y-68834000D01*
X169143023Y-68361386D01*
X168875309Y-67960723D01*
X168474646Y-67693009D01*
X168002032Y-67599000D01*
X167137968Y-67599000D01*
X166665354Y-67693009D01*
X166264691Y-67960723D01*
X165996977Y-68361386D01*
X165902968Y-68834000D01*
X160780000Y-68834000D01*
X160780000Y-66294000D01*
X165902968Y-66294000D01*
X165996977Y-66766614D01*
X166264691Y-67167277D01*
X166665354Y-67434991D01*
X167137968Y-67529000D01*
X168002032Y-67529000D01*
X168474646Y-67434991D01*
X168875309Y-67167277D01*
X169143023Y-66766614D01*
X169237032Y-66294000D01*
X169143023Y-65821386D01*
X168875309Y-65420723D01*
X168474646Y-65153009D01*
X168002032Y-65059000D01*
X167137968Y-65059000D01*
X166665354Y-65153009D01*
X166264691Y-65420723D01*
X165996977Y-65821386D01*
X165902968Y-66294000D01*
X160780000Y-66294000D01*
X160780000Y-63052802D01*
X160842802Y-62990000D01*
X166191675Y-62990000D01*
X165996977Y-63281386D01*
M02*
