M48
;DRILL file {KiCad 4.0.7} date 07/11/18 14:18:06
;FORMAT={-:-/ absolute / inch / decimal}
FMAT,2
INCH,TZ
T1C0.024
T2C0.031
T3C0.033
T4C0.035
T5C0.043
T6C0.047
T7C0.118
%
G90
G05
M72
T2
X5.45Y-2.195
X5.455Y-2.395
X5.455Y-2.595
X5.455Y-2.795
X5.75Y-2.195
X5.755Y-2.395
X5.755Y-2.595
X5.755Y-2.795
X5.845Y-2.195
X5.845Y-2.295
X5.845Y-2.395
X5.845Y-2.495
X5.845Y-2.595
X5.845Y-2.695
X5.845Y-2.795
X5.845Y-2.895
X5.955Y-4.3
X6.145Y-2.195
X6.145Y-2.295
X6.145Y-2.395
X6.145Y-2.495
X6.145Y-2.595
X6.145Y-2.695
X6.145Y-2.795
X6.145Y-2.895
X6.255Y-4.3
X6.5972Y-2.51
X6.5972Y-2.61
X6.5972Y-2.71
X6.5972Y-2.81
X6.5972Y-2.91
X6.5972Y-3.01
X6.5972Y-3.11
X6.5972Y-3.21
X6.5972Y-3.31
X6.5972Y-3.41
X6.5972Y-3.51
X6.5972Y-3.61
X6.5972Y-3.71
X6.5972Y-3.81
X6.5972Y-3.91
X7.5028Y-2.51
X7.5028Y-2.61
X7.5028Y-2.71
X7.5028Y-2.81
X7.5028Y-2.91
X7.5028Y-3.01
X7.5028Y-3.11
X7.5028Y-3.21
X7.5028Y-3.31
X7.5028Y-3.41
X7.5028Y-3.51
X7.5028Y-3.61
X7.5028Y-3.71
X7.5028Y-3.81
X7.5028Y-3.91
T3
X6.0066Y-4.4325
X6.2034Y-4.4325
T4
X6.155Y-4.145
X6.255Y-4.145
T5
X5.27Y-2.195
X5.27Y-2.295
X5.27Y-2.395
X5.27Y-2.495
X5.27Y-2.595
X5.27Y-2.695
X5.27Y-2.795
X5.27Y-2.895
T6
X5.28Y-3.11
X5.28Y-3.21
X5.28Y-3.31
X5.28Y-3.47
X5.28Y-3.57
X5.28Y-3.67
T7
X5.17Y-4.49
X6.2Y-3.31
X7.43Y-4.49
T1
X5.9672Y-4.5526G85X5.9672Y-4.525
G05
X6.2428Y-4.525G85X6.2428Y-4.5526
G05
T0
M30
