G04 #@! TF.FileFunction,Legend,Top*
%FSLAX46Y46*%
G04 Gerber Fmt 4.6, Leading zero omitted, Abs format (unit mm)*
G04 Created by KiCad (PCBNEW 4.0.7) date 07/11/18 14:17:59*
%MOMM*%
%LPD*%
G01*
G04 APERTURE LIST*
%ADD10C,0.100000*%
%ADD11C,0.150000*%
%ADD12C,0.120000*%
G04 APERTURE END LIST*
D10*
D11*
X166070001Y-62654000D02*
X166070000Y-100414000D01*
X166070000Y-100414000D02*
X192069999Y-100414000D01*
X192069999Y-100414000D02*
X192070000Y-62654000D01*
X192070000Y-62654000D02*
X183403333Y-62654000D01*
X183403333Y-62654000D02*
X183403333Y-63104000D01*
X183403333Y-63104000D02*
X174736667Y-63104000D01*
X174736667Y-63104000D02*
X174736667Y-62654000D01*
X174736667Y-62654000D02*
X166070001Y-62654000D01*
D12*
X159279335Y-104204392D02*
G75*
G03X156047000Y-104047484I-1672335J-1078608D01*
G01*
X159279335Y-106361608D02*
G75*
G02X156047000Y-106518516I-1672335J1078608D01*
G01*
X158648130Y-104203163D02*
G75*
G03X156566039Y-104203000I-1041130J-1079837D01*
G01*
X158648130Y-106362837D02*
G75*
G02X156566039Y-106363000I-1041130J1079837D01*
G01*
X156047000Y-104047000D02*
X156047000Y-104203000D01*
X156047000Y-106363000D02*
X156047000Y-106519000D01*
D11*
X136956800Y-75041760D02*
X136956800Y-54244240D01*
X136558020Y-54244240D02*
X136558020Y-75041760D01*
X130759200Y-75041760D02*
X130759200Y-54244240D01*
X131257040Y-54244240D02*
X131257040Y-75041760D01*
X131257040Y-64643000D02*
X130759200Y-64643000D01*
X131257040Y-72242680D02*
X130759200Y-72242680D01*
X131257040Y-69743320D02*
X130759200Y-69743320D01*
X131257040Y-67144900D02*
X130759200Y-67144900D01*
X131257040Y-62143640D02*
X130759200Y-62143640D01*
X131257040Y-59545220D02*
X130759200Y-59545220D01*
X130759200Y-54444900D02*
X131257040Y-54444900D01*
X131257040Y-74841100D02*
X130759200Y-74841100D01*
X130759200Y-57048400D02*
X131257040Y-57048400D01*
X130759200Y-75039220D02*
X136956800Y-75039220D01*
X136956800Y-54246780D02*
X130759200Y-54246780D01*
D12*
X151167000Y-112285000D02*
X151617000Y-112285000D01*
X151167000Y-114135000D02*
X151167000Y-112285000D01*
X158967000Y-116685000D02*
X158967000Y-116435000D01*
X151167000Y-116685000D02*
X151167000Y-116435000D01*
X158967000Y-114135000D02*
X158967000Y-112285000D01*
X158967000Y-112285000D02*
X158517000Y-112285000D01*
X153367000Y-111735000D02*
X153817000Y-111735000D01*
X153367000Y-111735000D02*
X153367000Y-112185000D01*
X145450000Y-56733000D02*
X145450000Y-57063000D01*
X145450000Y-57063000D02*
X139030000Y-57063000D01*
X139030000Y-57063000D02*
X139030000Y-56733000D01*
X145450000Y-54773000D02*
X145450000Y-54443000D01*
X145450000Y-54443000D02*
X139030000Y-54443000D01*
X139030000Y-54443000D02*
X139030000Y-54773000D01*
X145577000Y-61813000D02*
X145577000Y-62143000D01*
X145577000Y-62143000D02*
X139157000Y-62143000D01*
X139157000Y-62143000D02*
X139157000Y-61813000D01*
X145577000Y-59853000D02*
X145577000Y-59523000D01*
X145577000Y-59523000D02*
X139157000Y-59523000D01*
X139157000Y-59523000D02*
X139157000Y-59853000D01*
X145577000Y-66893000D02*
X145577000Y-67223000D01*
X145577000Y-67223000D02*
X139157000Y-67223000D01*
X139157000Y-67223000D02*
X139157000Y-66893000D01*
X145577000Y-64933000D02*
X145577000Y-64603000D01*
X145577000Y-64603000D02*
X139157000Y-64603000D01*
X139157000Y-64603000D02*
X139157000Y-64933000D01*
X145577000Y-71973000D02*
X145577000Y-72303000D01*
X145577000Y-72303000D02*
X139157000Y-72303000D01*
X139157000Y-72303000D02*
X139157000Y-71973000D01*
X145577000Y-70013000D02*
X145577000Y-69683000D01*
X145577000Y-69683000D02*
X139157000Y-69683000D01*
X139157000Y-69683000D02*
X139157000Y-70013000D01*
X158277000Y-110200000D02*
X158277000Y-110530000D01*
X158277000Y-110530000D02*
X151857000Y-110530000D01*
X151857000Y-110530000D02*
X151857000Y-110200000D01*
X158277000Y-108240000D02*
X158277000Y-107910000D01*
X158277000Y-107910000D02*
X151857000Y-107910000D01*
X151857000Y-107910000D02*
X151857000Y-108240000D01*
X151273000Y-54363000D02*
X149503000Y-54363000D01*
X149503000Y-54363000D02*
X149503000Y-74923000D01*
X149503000Y-74923000D02*
X155043000Y-74923000D01*
X155043000Y-74923000D02*
X155043000Y-54363000D01*
X155043000Y-54363000D02*
X153273000Y-54363000D01*
X153273000Y-54363000D02*
G75*
G02X151273000Y-54363000I-1000000J0D01*
G01*
X137132000Y-77624000D02*
X131132000Y-77624000D01*
X131132000Y-77624000D02*
X131132000Y-85444000D01*
X131132000Y-85444000D02*
X137132000Y-85444000D01*
X137132000Y-85444000D02*
X137132000Y-77624000D01*
X131132000Y-78994000D02*
X132132000Y-78994000D01*
X132132000Y-78994000D02*
X132132000Y-84074000D01*
X132132000Y-84074000D02*
X131132000Y-84074000D01*
X132132000Y-78994000D02*
X132562000Y-79244000D01*
X132562000Y-79244000D02*
X132562000Y-83824000D01*
X132562000Y-83824000D02*
X132132000Y-84074000D01*
X131132000Y-79244000D02*
X132132000Y-79244000D01*
X131132000Y-83824000D02*
X132132000Y-83824000D01*
X137132000Y-78194000D02*
X136512000Y-78194000D01*
X136512000Y-78194000D02*
X136512000Y-79794000D01*
X136512000Y-79794000D02*
X137132000Y-79794000D01*
X137132000Y-80734000D02*
X136512000Y-80734000D01*
X136512000Y-80734000D02*
X136512000Y-82334000D01*
X136512000Y-82334000D02*
X137132000Y-82334000D01*
X137132000Y-83274000D02*
X136512000Y-83274000D01*
X136512000Y-83274000D02*
X136512000Y-84874000D01*
X136512000Y-84874000D02*
X137132000Y-84874000D01*
X137132000Y-86768000D02*
X131132000Y-86768000D01*
X131132000Y-86768000D02*
X131132000Y-94588000D01*
X131132000Y-94588000D02*
X137132000Y-94588000D01*
X137132000Y-94588000D02*
X137132000Y-86768000D01*
X131132000Y-88138000D02*
X132132000Y-88138000D01*
X132132000Y-88138000D02*
X132132000Y-93218000D01*
X132132000Y-93218000D02*
X131132000Y-93218000D01*
X132132000Y-88138000D02*
X132562000Y-88388000D01*
X132562000Y-88388000D02*
X132562000Y-92968000D01*
X132562000Y-92968000D02*
X132132000Y-93218000D01*
X131132000Y-88388000D02*
X132132000Y-88388000D01*
X131132000Y-92968000D02*
X132132000Y-92968000D01*
X137132000Y-87338000D02*
X136512000Y-87338000D01*
X136512000Y-87338000D02*
X136512000Y-88938000D01*
X136512000Y-88938000D02*
X137132000Y-88938000D01*
X137132000Y-89878000D02*
X136512000Y-89878000D01*
X136512000Y-89878000D02*
X136512000Y-91478000D01*
X136512000Y-91478000D02*
X137132000Y-91478000D01*
X137132000Y-92418000D02*
X136512000Y-92418000D01*
X136512000Y-92418000D02*
X136512000Y-94018000D01*
X136512000Y-94018000D02*
X137132000Y-94018000D01*
D11*
X178155714Y-60796857D02*
X178155714Y-61768286D01*
X178212857Y-61882571D01*
X178270000Y-61939714D01*
X178384286Y-61996857D01*
X178612857Y-61996857D01*
X178727143Y-61939714D01*
X178784286Y-61882571D01*
X178841429Y-61768286D01*
X178841429Y-60796857D01*
X179355714Y-60911143D02*
X179412857Y-60854000D01*
X179527143Y-60796857D01*
X179812857Y-60796857D01*
X179927143Y-60854000D01*
X179984286Y-60911143D01*
X180041429Y-61025429D01*
X180041429Y-61139714D01*
X179984286Y-61311143D01*
X179298572Y-61996857D01*
X180041429Y-61996857D01*
X156868905Y-102775381D02*
X156868905Y-101775381D01*
X157107000Y-101775381D01*
X157249858Y-101823000D01*
X157345096Y-101918238D01*
X157392715Y-102013476D01*
X157440334Y-102203952D01*
X157440334Y-102346810D01*
X157392715Y-102537286D01*
X157345096Y-102632524D01*
X157249858Y-102727762D01*
X157107000Y-102775381D01*
X156868905Y-102775381D01*
X158392715Y-102775381D02*
X157821286Y-102775381D01*
X158107000Y-102775381D02*
X158107000Y-101775381D01*
X158011762Y-101918238D01*
X157916524Y-102013476D01*
X157821286Y-102061095D01*
X137811261Y-64976333D02*
X138525547Y-64976333D01*
X138668404Y-65023953D01*
X138763642Y-65119191D01*
X138811261Y-65262048D01*
X138811261Y-65357286D01*
X138811261Y-63976333D02*
X138811261Y-64547762D01*
X138811261Y-64262048D02*
X137811261Y-64262048D01*
X137954118Y-64357286D01*
X138049356Y-64452524D01*
X138096975Y-64547762D01*
X154733667Y-110387381D02*
X154733667Y-111101667D01*
X154686047Y-111244524D01*
X154590809Y-111339762D01*
X154447952Y-111387381D01*
X154352714Y-111387381D01*
X155162238Y-110482619D02*
X155209857Y-110435000D01*
X155305095Y-110387381D01*
X155543191Y-110387381D01*
X155638429Y-110435000D01*
X155686048Y-110482619D01*
X155733667Y-110577857D01*
X155733667Y-110673095D01*
X155686048Y-110815952D01*
X155114619Y-111387381D01*
X155733667Y-111387381D01*
X142073334Y-58515381D02*
X141740000Y-58039190D01*
X141501905Y-58515381D02*
X141501905Y-57515381D01*
X141882858Y-57515381D01*
X141978096Y-57563000D01*
X142025715Y-57610619D01*
X142073334Y-57705857D01*
X142073334Y-57848714D01*
X142025715Y-57943952D01*
X141978096Y-57991571D01*
X141882858Y-58039190D01*
X141501905Y-58039190D01*
X143025715Y-58515381D02*
X142454286Y-58515381D01*
X142740000Y-58515381D02*
X142740000Y-57515381D01*
X142644762Y-57658238D01*
X142549524Y-57753476D01*
X142454286Y-57801095D01*
X142200334Y-63595381D02*
X141867000Y-63119190D01*
X141628905Y-63595381D02*
X141628905Y-62595381D01*
X142009858Y-62595381D01*
X142105096Y-62643000D01*
X142152715Y-62690619D01*
X142200334Y-62785857D01*
X142200334Y-62928714D01*
X142152715Y-63023952D01*
X142105096Y-63071571D01*
X142009858Y-63119190D01*
X141628905Y-63119190D01*
X142581286Y-62690619D02*
X142628905Y-62643000D01*
X142724143Y-62595381D01*
X142962239Y-62595381D01*
X143057477Y-62643000D01*
X143105096Y-62690619D01*
X143152715Y-62785857D01*
X143152715Y-62881095D01*
X143105096Y-63023952D01*
X142533667Y-63595381D01*
X143152715Y-63595381D01*
X142200334Y-68675381D02*
X141867000Y-68199190D01*
X141628905Y-68675381D02*
X141628905Y-67675381D01*
X142009858Y-67675381D01*
X142105096Y-67723000D01*
X142152715Y-67770619D01*
X142200334Y-67865857D01*
X142200334Y-68008714D01*
X142152715Y-68103952D01*
X142105096Y-68151571D01*
X142009858Y-68199190D01*
X141628905Y-68199190D01*
X142533667Y-67675381D02*
X143152715Y-67675381D01*
X142819381Y-68056333D01*
X142962239Y-68056333D01*
X143057477Y-68103952D01*
X143105096Y-68151571D01*
X143152715Y-68246810D01*
X143152715Y-68484905D01*
X143105096Y-68580143D01*
X143057477Y-68627762D01*
X142962239Y-68675381D01*
X142676524Y-68675381D01*
X142581286Y-68627762D01*
X142533667Y-68580143D01*
X142200334Y-73755381D02*
X141867000Y-73279190D01*
X141628905Y-73755381D02*
X141628905Y-72755381D01*
X142009858Y-72755381D01*
X142105096Y-72803000D01*
X142152715Y-72850619D01*
X142200334Y-72945857D01*
X142200334Y-73088714D01*
X142152715Y-73183952D01*
X142105096Y-73231571D01*
X142009858Y-73279190D01*
X141628905Y-73279190D01*
X143057477Y-73088714D02*
X143057477Y-73755381D01*
X142819381Y-72707762D02*
X142581286Y-73422048D01*
X143200334Y-73422048D01*
X154900334Y-111982381D02*
X154567000Y-111506190D01*
X154328905Y-111982381D02*
X154328905Y-110982381D01*
X154709858Y-110982381D01*
X154805096Y-111030000D01*
X154852715Y-111077619D01*
X154900334Y-111172857D01*
X154900334Y-111315714D01*
X154852715Y-111410952D01*
X154805096Y-111458571D01*
X154709858Y-111506190D01*
X154328905Y-111506190D01*
X155805096Y-110982381D02*
X155328905Y-110982381D01*
X155281286Y-111458571D01*
X155328905Y-111410952D01*
X155424143Y-111363333D01*
X155662239Y-111363333D01*
X155757477Y-111410952D01*
X155805096Y-111458571D01*
X155852715Y-111553810D01*
X155852715Y-111791905D01*
X155805096Y-111887143D01*
X155757477Y-111934762D01*
X155662239Y-111982381D01*
X155424143Y-111982381D01*
X155328905Y-111934762D01*
X155281286Y-111887143D01*
X151511095Y-52815381D02*
X151511095Y-53624905D01*
X151558714Y-53720143D01*
X151606333Y-53767762D01*
X151701571Y-53815381D01*
X151892048Y-53815381D01*
X151987286Y-53767762D01*
X152034905Y-53720143D01*
X152082524Y-53624905D01*
X152082524Y-52815381D01*
X153082524Y-53815381D02*
X152511095Y-53815381D01*
X152796809Y-53815381D02*
X152796809Y-52815381D01*
X152701571Y-52958238D01*
X152606333Y-53053476D01*
X152511095Y-53101095D01*
X129984667Y-110498381D02*
X129651333Y-110022190D01*
X129413238Y-110498381D02*
X129413238Y-109498381D01*
X129794191Y-109498381D01*
X129889429Y-109546000D01*
X129937048Y-109593619D01*
X129984667Y-109688857D01*
X129984667Y-109831714D01*
X129937048Y-109926952D01*
X129889429Y-109974571D01*
X129794191Y-110022190D01*
X129413238Y-110022190D01*
X130413238Y-109974571D02*
X130746572Y-109974571D01*
X130889429Y-110498381D02*
X130413238Y-110498381D01*
X130413238Y-109498381D01*
X130889429Y-109498381D01*
X131651334Y-109974571D02*
X131318000Y-109974571D01*
X131318000Y-110498381D02*
X131318000Y-109498381D01*
X131794191Y-109498381D01*
X132318000Y-109498381D02*
X132318000Y-109736476D01*
X132079905Y-109641238D02*
X132318000Y-109736476D01*
X132556096Y-109641238D01*
X132175143Y-109926952D02*
X132318000Y-109736476D01*
X132460858Y-109926952D01*
X133079905Y-109498381D02*
X133079905Y-109736476D01*
X132841810Y-109641238D02*
X133079905Y-109736476D01*
X133318001Y-109641238D01*
X132937048Y-109926952D02*
X133079905Y-109736476D01*
X133222763Y-109926952D01*
X187388667Y-110498381D02*
X187055333Y-110022190D01*
X186817238Y-110498381D02*
X186817238Y-109498381D01*
X187198191Y-109498381D01*
X187293429Y-109546000D01*
X187341048Y-109593619D01*
X187388667Y-109688857D01*
X187388667Y-109831714D01*
X187341048Y-109926952D01*
X187293429Y-109974571D01*
X187198191Y-110022190D01*
X186817238Y-110022190D01*
X187817238Y-109974571D02*
X188150572Y-109974571D01*
X188293429Y-110498381D02*
X187817238Y-110498381D01*
X187817238Y-109498381D01*
X188293429Y-109498381D01*
X189055334Y-109974571D02*
X188722000Y-109974571D01*
X188722000Y-110498381D02*
X188722000Y-109498381D01*
X189198191Y-109498381D01*
X189722000Y-109498381D02*
X189722000Y-109736476D01*
X189483905Y-109641238D02*
X189722000Y-109736476D01*
X189960096Y-109641238D01*
X189579143Y-109926952D02*
X189722000Y-109736476D01*
X189864858Y-109926952D01*
X190483905Y-109498381D02*
X190483905Y-109736476D01*
X190245810Y-109641238D02*
X190483905Y-109736476D01*
X190722001Y-109641238D01*
X190341048Y-109926952D02*
X190483905Y-109736476D01*
X190626763Y-109926952D01*
X156146667Y-80526381D02*
X155813333Y-80050190D01*
X155575238Y-80526381D02*
X155575238Y-79526381D01*
X155956191Y-79526381D01*
X156051429Y-79574000D01*
X156099048Y-79621619D01*
X156146667Y-79716857D01*
X156146667Y-79859714D01*
X156099048Y-79954952D01*
X156051429Y-80002571D01*
X155956191Y-80050190D01*
X155575238Y-80050190D01*
X156575238Y-80002571D02*
X156908572Y-80002571D01*
X157051429Y-80526381D02*
X156575238Y-80526381D01*
X156575238Y-79526381D01*
X157051429Y-79526381D01*
X157813334Y-80002571D02*
X157480000Y-80002571D01*
X157480000Y-80526381D02*
X157480000Y-79526381D01*
X157956191Y-79526381D01*
X158480000Y-79526381D02*
X158480000Y-79764476D01*
X158241905Y-79669238D02*
X158480000Y-79764476D01*
X158718096Y-79669238D01*
X158337143Y-79954952D02*
X158480000Y-79764476D01*
X158622858Y-79954952D01*
X159241905Y-79526381D02*
X159241905Y-79764476D01*
X159003810Y-79669238D02*
X159241905Y-79764476D01*
X159480001Y-79669238D01*
X159099048Y-79954952D02*
X159241905Y-79764476D01*
X159384763Y-79954952D01*
X138064381Y-80327333D02*
X138778667Y-80327333D01*
X138921524Y-80374953D01*
X139016762Y-80470191D01*
X139064381Y-80613048D01*
X139064381Y-80708286D01*
X138064381Y-79946381D02*
X138064381Y-79327333D01*
X138445333Y-79660667D01*
X138445333Y-79517809D01*
X138492952Y-79422571D01*
X138540571Y-79374952D01*
X138635810Y-79327333D01*
X138873905Y-79327333D01*
X138969143Y-79374952D01*
X139016762Y-79422571D01*
X139064381Y-79517809D01*
X139064381Y-79803524D01*
X139016762Y-79898762D01*
X138969143Y-79946381D01*
X138064381Y-89471333D02*
X138778667Y-89471333D01*
X138921524Y-89518953D01*
X139016762Y-89614191D01*
X139064381Y-89757048D01*
X139064381Y-89852286D01*
X138397714Y-88566571D02*
X139064381Y-88566571D01*
X138016762Y-88804667D02*
X138731048Y-89042762D01*
X138731048Y-88423714D01*
M02*
