G04 #@! TF.FileFunction,Soldermask,Bot*
%FSLAX46Y46*%
G04 Gerber Fmt 4.6, Leading zero omitted, Abs format (unit mm)*
G04 Created by KiCad (PCBNEW 4.0.7) date 07/11/18 14:17:59*
%MOMM*%
%LPD*%
G01*
G04 APERTURE LIST*
%ADD10C,0.100000*%
%ADD11O,2.400000X1.600000*%
%ADD12R,2.200000X2.200000*%
%ADD13C,2.200000*%
%ADD14O,2.398980X2.398980*%
%ADD15R,2.398980X2.398980*%
%ADD16C,1.850000*%
%ADD17O,1.600000X2.300000*%
%ADD18C,2.000000*%
%ADD19O,2.000000X2.000000*%
%ADD20R,2.000000X2.000000*%
%ADD21C,6.400000*%
%ADD22R,3.000000X2.400000*%
%ADD23O,3.000000X2.400000*%
G04 APERTURE END LIST*
D10*
D11*
X190570000Y-63754000D03*
X167570000Y-63754000D03*
X190570000Y-66294000D03*
X167570000Y-66294000D03*
X190570000Y-68834000D03*
X167570000Y-68834000D03*
X190570000Y-71374000D03*
X167570000Y-71374000D03*
X190570000Y-73914000D03*
X167570000Y-73914000D03*
X190570000Y-76454000D03*
X167570000Y-76454000D03*
X190570000Y-78994000D03*
X167570000Y-78994000D03*
X190570000Y-81534000D03*
X167570000Y-81534000D03*
X190570000Y-84074000D03*
X167570000Y-84074000D03*
X190570000Y-86614000D03*
X167570000Y-86614000D03*
X190570000Y-89154000D03*
X167570000Y-89154000D03*
X190570000Y-91694000D03*
X167570000Y-91694000D03*
X190570000Y-94234000D03*
X167570000Y-94234000D03*
X190570000Y-96774000D03*
X167570000Y-96774000D03*
X190570000Y-99314000D03*
X167570000Y-99314000D03*
D12*
X156337000Y-105283000D03*
D13*
X158877000Y-105283000D03*
D14*
X133858000Y-63373000D03*
D15*
X133858000Y-55753000D03*
D14*
X133858000Y-58293000D03*
X133858000Y-60833000D03*
X133858000Y-65913000D03*
X133858000Y-68453000D03*
X133858000Y-70993000D03*
X133858000Y-73533000D03*
D16*
X152567000Y-112585000D03*
X157567000Y-112585000D03*
D17*
X151567000Y-115285000D03*
X158567000Y-115285000D03*
D18*
X146050000Y-55753000D03*
D19*
X138430000Y-55753000D03*
D18*
X146177000Y-60833000D03*
D19*
X138557000Y-60833000D03*
D18*
X146177000Y-65913000D03*
D19*
X138557000Y-65913000D03*
D18*
X146177000Y-70993000D03*
D19*
X138557000Y-70993000D03*
D18*
X158877000Y-109220000D03*
D19*
X151257000Y-109220000D03*
D20*
X148463000Y-55753000D03*
D19*
X156083000Y-73533000D03*
X148463000Y-58293000D03*
X156083000Y-70993000D03*
X148463000Y-60833000D03*
X156083000Y-68453000D03*
X148463000Y-63373000D03*
X156083000Y-65913000D03*
X148463000Y-65913000D03*
X156083000Y-63373000D03*
X148463000Y-68453000D03*
X156083000Y-60833000D03*
X148463000Y-70993000D03*
X156083000Y-58293000D03*
X148463000Y-73533000D03*
X156083000Y-55753000D03*
D21*
X131318000Y-114046000D03*
X188722000Y-114046000D03*
X157480000Y-84074000D03*
D22*
X134112000Y-78994000D03*
D23*
X134112000Y-81534000D03*
X134112000Y-84074000D03*
D22*
X134112000Y-88138000D03*
D23*
X134112000Y-90678000D03*
X134112000Y-93218000D03*
M02*
