M48
;DRILL file {KiCad 4.0.7} date 06/28/18 11:14:51
;FORMAT={-:-/ absolute / inch / decimal}
FMAT,2
INCH,TZ
T1C0.024
T2C0.030
T3C0.031
T4C0.033
T5C0.035
T6C0.043
T7C0.118
%
G90
G05
M72
T2
X6.405Y-2.515
X6.405Y-2.615
X6.405Y-2.715
X6.405Y-2.815
X6.405Y-2.915
X6.405Y-3.015
X6.405Y-3.115
X6.405Y-3.215
X6.405Y-3.315
X6.405Y-3.415
X6.405Y-3.515
X6.405Y-3.615
X6.405Y-3.715
X6.405Y-3.815
X6.405Y-3.915
X7.505Y-2.515
X7.505Y-2.615
X7.505Y-2.715
X7.505Y-2.815
X7.505Y-2.915
X7.505Y-3.015
X7.505Y-3.115
X7.505Y-3.215
X7.505Y-3.315
X7.505Y-3.415
X7.505Y-3.515
X7.505Y-3.615
X7.505Y-3.715
X7.505Y-3.815
X7.505Y-3.915
T3
X5.45Y-2.195
X5.455Y-2.395
X5.455Y-2.595
X5.455Y-2.795
X5.75Y-2.195
X5.755Y-2.395
X5.755Y-2.595
X5.755Y-2.795
X5.845Y-2.195
X5.845Y-2.295
X5.845Y-2.395
X5.845Y-2.495
X5.845Y-2.595
X5.845Y-2.695
X5.845Y-2.795
X5.845Y-2.895
X5.955Y-4.3
X6.145Y-2.195
X6.145Y-2.295
X6.145Y-2.395
X6.145Y-2.495
X6.145Y-2.595
X6.145Y-2.695
X6.145Y-2.795
X6.145Y-2.895
X6.255Y-4.3
T4
X6.0066Y-4.4325
X6.2034Y-4.4325
T5
X6.155Y-4.145
X6.255Y-4.145
T6
X5.27Y-2.195
X5.27Y-2.295
X5.27Y-2.395
X5.27Y-2.495
X5.27Y-2.595
X5.27Y-2.695
X5.27Y-2.795
X5.27Y-2.895
T7
X5.17Y-4.49
X6.2Y-3.31
X7.43Y-4.49
T1
X5.9672Y-4.5526G85X5.9672Y-4.525
G05
X6.2428Y-4.525G85X6.2428Y-4.5526
G05
T0
M30
