G04 #@! TF.FileFunction,Legend,Top*
%FSLAX46Y46*%
G04 Gerber Fmt 4.6, Leading zero omitted, Abs format (unit mm)*
G04 Created by KiCad (PCBNEW 4.0.7) date 06/28/18 11:13:41*
%MOMM*%
%LPD*%
G01*
G04 APERTURE LIST*
%ADD10C,0.100000*%
%ADD11C,0.120000*%
%ADD12C,0.150000*%
G04 APERTURE END LIST*
D10*
D11*
X159279335Y-104204392D02*
G75*
G03X156047000Y-104047484I-1672335J-1078608D01*
G01*
X159279335Y-106361608D02*
G75*
G02X156047000Y-106518516I-1672335J1078608D01*
G01*
X158648130Y-104203163D02*
G75*
G03X156566039Y-104203000I-1041130J-1079837D01*
G01*
X158648130Y-106362837D02*
G75*
G02X156566039Y-106363000I-1041130J1079837D01*
G01*
X156047000Y-104047000D02*
X156047000Y-104203000D01*
X156047000Y-106363000D02*
X156047000Y-106519000D01*
D12*
X136956800Y-75041760D02*
X136956800Y-54244240D01*
X136558020Y-54244240D02*
X136558020Y-75041760D01*
X130759200Y-75041760D02*
X130759200Y-54244240D01*
X131257040Y-54244240D02*
X131257040Y-75041760D01*
X131257040Y-64643000D02*
X130759200Y-64643000D01*
X131257040Y-72242680D02*
X130759200Y-72242680D01*
X131257040Y-69743320D02*
X130759200Y-69743320D01*
X131257040Y-67144900D02*
X130759200Y-67144900D01*
X131257040Y-62143640D02*
X130759200Y-62143640D01*
X131257040Y-59545220D02*
X130759200Y-59545220D01*
X130759200Y-54444900D02*
X131257040Y-54444900D01*
X131257040Y-74841100D02*
X130759200Y-74841100D01*
X130759200Y-57048400D02*
X131257040Y-57048400D01*
X130759200Y-75039220D02*
X136956800Y-75039220D01*
X136956800Y-54246780D02*
X130759200Y-54246780D01*
D11*
X151167000Y-112285000D02*
X151617000Y-112285000D01*
X151167000Y-114135000D02*
X151167000Y-112285000D01*
X158967000Y-116685000D02*
X158967000Y-116435000D01*
X151167000Y-116685000D02*
X151167000Y-116435000D01*
X158967000Y-114135000D02*
X158967000Y-112285000D01*
X158967000Y-112285000D02*
X158517000Y-112285000D01*
X153367000Y-111735000D02*
X153817000Y-111735000D01*
X153367000Y-111735000D02*
X153367000Y-112185000D01*
X145450000Y-56733000D02*
X145450000Y-57063000D01*
X145450000Y-57063000D02*
X139030000Y-57063000D01*
X139030000Y-57063000D02*
X139030000Y-56733000D01*
X145450000Y-54773000D02*
X145450000Y-54443000D01*
X145450000Y-54443000D02*
X139030000Y-54443000D01*
X139030000Y-54443000D02*
X139030000Y-54773000D01*
X145577000Y-61813000D02*
X145577000Y-62143000D01*
X145577000Y-62143000D02*
X139157000Y-62143000D01*
X139157000Y-62143000D02*
X139157000Y-61813000D01*
X145577000Y-59853000D02*
X145577000Y-59523000D01*
X145577000Y-59523000D02*
X139157000Y-59523000D01*
X139157000Y-59523000D02*
X139157000Y-59853000D01*
X145577000Y-66893000D02*
X145577000Y-67223000D01*
X145577000Y-67223000D02*
X139157000Y-67223000D01*
X139157000Y-67223000D02*
X139157000Y-66893000D01*
X145577000Y-64933000D02*
X145577000Y-64603000D01*
X145577000Y-64603000D02*
X139157000Y-64603000D01*
X139157000Y-64603000D02*
X139157000Y-64933000D01*
X145577000Y-71973000D02*
X145577000Y-72303000D01*
X145577000Y-72303000D02*
X139157000Y-72303000D01*
X139157000Y-72303000D02*
X139157000Y-71973000D01*
X145577000Y-70013000D02*
X145577000Y-69683000D01*
X145577000Y-69683000D02*
X139157000Y-69683000D01*
X139157000Y-69683000D02*
X139157000Y-70013000D01*
X158277000Y-110200000D02*
X158277000Y-110530000D01*
X158277000Y-110530000D02*
X151857000Y-110530000D01*
X151857000Y-110530000D02*
X151857000Y-110200000D01*
X158277000Y-108240000D02*
X158277000Y-107910000D01*
X158277000Y-107910000D02*
X151857000Y-107910000D01*
X151857000Y-107910000D02*
X151857000Y-108240000D01*
D12*
X191153051Y-108331000D02*
G75*
G03X191153051Y-108331000I-1796051J0D01*
G01*
X165753051Y-108331000D02*
G75*
G03X165753051Y-108331000I-1796051J0D01*
G01*
X165753051Y-56261000D02*
G75*
G03X165753051Y-56261000I-1796051J0D01*
G01*
X191153051Y-56261000D02*
G75*
G03X191153051Y-56261000I-1796051J0D01*
G01*
X191907000Y-53701000D02*
X161907000Y-53701000D01*
X161907000Y-53701000D02*
X161407000Y-53701000D01*
X161407000Y-53701000D02*
X161407000Y-110701000D01*
X161407000Y-110701000D02*
X191907000Y-110701000D01*
X191907000Y-110701000D02*
X191907000Y-53701000D01*
D11*
X151273000Y-54363000D02*
X149503000Y-54363000D01*
X149503000Y-54363000D02*
X149503000Y-74923000D01*
X149503000Y-74923000D02*
X155043000Y-74923000D01*
X155043000Y-74923000D02*
X155043000Y-54363000D01*
X155043000Y-54363000D02*
X153273000Y-54363000D01*
X153273000Y-54363000D02*
G75*
G02X151273000Y-54363000I-1000000J0D01*
G01*
D12*
X156868905Y-102775381D02*
X156868905Y-101775381D01*
X157107000Y-101775381D01*
X157249858Y-101823000D01*
X157345096Y-101918238D01*
X157392715Y-102013476D01*
X157440334Y-102203952D01*
X157440334Y-102346810D01*
X157392715Y-102537286D01*
X157345096Y-102632524D01*
X157249858Y-102727762D01*
X157107000Y-102775381D01*
X156868905Y-102775381D01*
X158392715Y-102775381D02*
X157821286Y-102775381D01*
X158107000Y-102775381D02*
X158107000Y-101775381D01*
X158011762Y-101918238D01*
X157916524Y-102013476D01*
X157821286Y-102061095D01*
X137811261Y-64976333D02*
X138525547Y-64976333D01*
X138668404Y-65023953D01*
X138763642Y-65119191D01*
X138811261Y-65262048D01*
X138811261Y-65357286D01*
X138811261Y-63976333D02*
X138811261Y-64547762D01*
X138811261Y-64262048D02*
X137811261Y-64262048D01*
X137954118Y-64357286D01*
X138049356Y-64452524D01*
X138096975Y-64547762D01*
X154733667Y-110387381D02*
X154733667Y-111101667D01*
X154686047Y-111244524D01*
X154590809Y-111339762D01*
X154447952Y-111387381D01*
X154352714Y-111387381D01*
X155162238Y-110482619D02*
X155209857Y-110435000D01*
X155305095Y-110387381D01*
X155543191Y-110387381D01*
X155638429Y-110435000D01*
X155686048Y-110482619D01*
X155733667Y-110577857D01*
X155733667Y-110673095D01*
X155686048Y-110815952D01*
X155114619Y-111387381D01*
X155733667Y-111387381D01*
X142073334Y-58515381D02*
X141740000Y-58039190D01*
X141501905Y-58515381D02*
X141501905Y-57515381D01*
X141882858Y-57515381D01*
X141978096Y-57563000D01*
X142025715Y-57610619D01*
X142073334Y-57705857D01*
X142073334Y-57848714D01*
X142025715Y-57943952D01*
X141978096Y-57991571D01*
X141882858Y-58039190D01*
X141501905Y-58039190D01*
X143025715Y-58515381D02*
X142454286Y-58515381D01*
X142740000Y-58515381D02*
X142740000Y-57515381D01*
X142644762Y-57658238D01*
X142549524Y-57753476D01*
X142454286Y-57801095D01*
X142200334Y-63595381D02*
X141867000Y-63119190D01*
X141628905Y-63595381D02*
X141628905Y-62595381D01*
X142009858Y-62595381D01*
X142105096Y-62643000D01*
X142152715Y-62690619D01*
X142200334Y-62785857D01*
X142200334Y-62928714D01*
X142152715Y-63023952D01*
X142105096Y-63071571D01*
X142009858Y-63119190D01*
X141628905Y-63119190D01*
X142581286Y-62690619D02*
X142628905Y-62643000D01*
X142724143Y-62595381D01*
X142962239Y-62595381D01*
X143057477Y-62643000D01*
X143105096Y-62690619D01*
X143152715Y-62785857D01*
X143152715Y-62881095D01*
X143105096Y-63023952D01*
X142533667Y-63595381D01*
X143152715Y-63595381D01*
X142200334Y-68675381D02*
X141867000Y-68199190D01*
X141628905Y-68675381D02*
X141628905Y-67675381D01*
X142009858Y-67675381D01*
X142105096Y-67723000D01*
X142152715Y-67770619D01*
X142200334Y-67865857D01*
X142200334Y-68008714D01*
X142152715Y-68103952D01*
X142105096Y-68151571D01*
X142009858Y-68199190D01*
X141628905Y-68199190D01*
X142533667Y-67675381D02*
X143152715Y-67675381D01*
X142819381Y-68056333D01*
X142962239Y-68056333D01*
X143057477Y-68103952D01*
X143105096Y-68151571D01*
X143152715Y-68246810D01*
X143152715Y-68484905D01*
X143105096Y-68580143D01*
X143057477Y-68627762D01*
X142962239Y-68675381D01*
X142676524Y-68675381D01*
X142581286Y-68627762D01*
X142533667Y-68580143D01*
X142200334Y-73755381D02*
X141867000Y-73279190D01*
X141628905Y-73755381D02*
X141628905Y-72755381D01*
X142009858Y-72755381D01*
X142105096Y-72803000D01*
X142152715Y-72850619D01*
X142200334Y-72945857D01*
X142200334Y-73088714D01*
X142152715Y-73183952D01*
X142105096Y-73231571D01*
X142009858Y-73279190D01*
X141628905Y-73279190D01*
X143057477Y-73088714D02*
X143057477Y-73755381D01*
X142819381Y-72707762D02*
X142581286Y-73422048D01*
X143200334Y-73422048D01*
X154900334Y-111982381D02*
X154567000Y-111506190D01*
X154328905Y-111982381D02*
X154328905Y-110982381D01*
X154709858Y-110982381D01*
X154805096Y-111030000D01*
X154852715Y-111077619D01*
X154900334Y-111172857D01*
X154900334Y-111315714D01*
X154852715Y-111410952D01*
X154805096Y-111458571D01*
X154709858Y-111506190D01*
X154328905Y-111506190D01*
X155805096Y-110982381D02*
X155328905Y-110982381D01*
X155281286Y-111458571D01*
X155328905Y-111410952D01*
X155424143Y-111363333D01*
X155662239Y-111363333D01*
X155757477Y-111410952D01*
X155805096Y-111458571D01*
X155852715Y-111553810D01*
X155852715Y-111791905D01*
X155805096Y-111887143D01*
X155757477Y-111934762D01*
X155662239Y-111982381D01*
X155424143Y-111982381D01*
X155328905Y-111934762D01*
X155281286Y-111887143D01*
X175895095Y-83653381D02*
X175895095Y-84462905D01*
X175942714Y-84558143D01*
X175990333Y-84605762D01*
X176085571Y-84653381D01*
X176276048Y-84653381D01*
X176371286Y-84605762D01*
X176418905Y-84558143D01*
X176466524Y-84462905D01*
X176466524Y-83653381D01*
X176895095Y-83748619D02*
X176942714Y-83701000D01*
X177037952Y-83653381D01*
X177276048Y-83653381D01*
X177371286Y-83701000D01*
X177418905Y-83748619D01*
X177466524Y-83843857D01*
X177466524Y-83939095D01*
X177418905Y-84081952D01*
X176847476Y-84653381D01*
X177466524Y-84653381D01*
X164131762Y-98893381D02*
X164465095Y-99893381D01*
X164798429Y-98893381D01*
X165131762Y-99893381D02*
X165131762Y-98893381D01*
X165607952Y-99893381D02*
X165607952Y-98893381D01*
X166179381Y-99893381D01*
X166179381Y-98893381D01*
X165488905Y-96401000D02*
X165393667Y-96353381D01*
X165250810Y-96353381D01*
X165107952Y-96401000D01*
X165012714Y-96496238D01*
X164965095Y-96591476D01*
X164917476Y-96781952D01*
X164917476Y-96924810D01*
X164965095Y-97115286D01*
X165012714Y-97210524D01*
X165107952Y-97305762D01*
X165250810Y-97353381D01*
X165346048Y-97353381D01*
X165488905Y-97305762D01*
X165536524Y-97258143D01*
X165536524Y-96924810D01*
X165346048Y-96924810D01*
X164679381Y-94813381D02*
X164346047Y-94337190D01*
X164107952Y-94813381D02*
X164107952Y-93813381D01*
X164488905Y-93813381D01*
X164584143Y-93861000D01*
X164631762Y-93908619D01*
X164679381Y-94003857D01*
X164679381Y-94146714D01*
X164631762Y-94241952D01*
X164584143Y-94289571D01*
X164488905Y-94337190D01*
X164107952Y-94337190D01*
X165060333Y-94765762D02*
X165203190Y-94813381D01*
X165441286Y-94813381D01*
X165536524Y-94765762D01*
X165584143Y-94718143D01*
X165631762Y-94622905D01*
X165631762Y-94527667D01*
X165584143Y-94432429D01*
X165536524Y-94384810D01*
X165441286Y-94337190D01*
X165250809Y-94289571D01*
X165155571Y-94241952D01*
X165107952Y-94194333D01*
X165060333Y-94099095D01*
X165060333Y-94003857D01*
X165107952Y-93908619D01*
X165155571Y-93861000D01*
X165250809Y-93813381D01*
X165488905Y-93813381D01*
X165631762Y-93861000D01*
X165917476Y-93813381D02*
X166488905Y-93813381D01*
X166203190Y-94813381D02*
X166203190Y-93813381D01*
X164488905Y-91749571D02*
X164822239Y-91749571D01*
X164965096Y-92273381D02*
X164488905Y-92273381D01*
X164488905Y-91273381D01*
X164965096Y-91273381D01*
X165393667Y-92273381D02*
X165393667Y-91273381D01*
X165965096Y-92273381D01*
X165965096Y-91273381D01*
X164465095Y-88733381D02*
X165084143Y-88733381D01*
X164750809Y-89114333D01*
X164893667Y-89114333D01*
X164988905Y-89161952D01*
X165036524Y-89209571D01*
X165084143Y-89304810D01*
X165084143Y-89542905D01*
X165036524Y-89638143D01*
X164988905Y-89685762D01*
X164893667Y-89733381D01*
X164607952Y-89733381D01*
X164512714Y-89685762D01*
X164465095Y-89638143D01*
X165369857Y-88733381D02*
X165703190Y-89733381D01*
X166036524Y-88733381D01*
X165488905Y-86241000D02*
X165393667Y-86193381D01*
X165250810Y-86193381D01*
X165107952Y-86241000D01*
X165012714Y-86336238D01*
X164965095Y-86431476D01*
X164917476Y-86621952D01*
X164917476Y-86764810D01*
X164965095Y-86955286D01*
X165012714Y-87050524D01*
X165107952Y-87145762D01*
X165250810Y-87193381D01*
X165346048Y-87193381D01*
X165488905Y-87145762D01*
X165536524Y-87098143D01*
X165536524Y-86764810D01*
X165346048Y-86764810D01*
X164441286Y-84605762D02*
X164584143Y-84653381D01*
X164822239Y-84653381D01*
X164917477Y-84605762D01*
X164965096Y-84558143D01*
X165012715Y-84462905D01*
X165012715Y-84367667D01*
X164965096Y-84272429D01*
X164917477Y-84224810D01*
X164822239Y-84177190D01*
X164631762Y-84129571D01*
X164536524Y-84081952D01*
X164488905Y-84034333D01*
X164441286Y-83939095D01*
X164441286Y-83843857D01*
X164488905Y-83748619D01*
X164536524Y-83701000D01*
X164631762Y-83653381D01*
X164869858Y-83653381D01*
X165012715Y-83701000D01*
X165441286Y-84653381D02*
X165441286Y-83653381D01*
X166012715Y-84653381D02*
X165584143Y-84081952D01*
X166012715Y-83653381D02*
X165441286Y-84224810D01*
X164417476Y-82065762D02*
X164560333Y-82113381D01*
X164798429Y-82113381D01*
X164893667Y-82065762D01*
X164941286Y-82018143D01*
X164988905Y-81922905D01*
X164988905Y-81827667D01*
X164941286Y-81732429D01*
X164893667Y-81684810D01*
X164798429Y-81637190D01*
X164607952Y-81589571D01*
X164512714Y-81541952D01*
X164465095Y-81494333D01*
X164417476Y-81399095D01*
X164417476Y-81303857D01*
X164465095Y-81208619D01*
X164512714Y-81161000D01*
X164607952Y-81113381D01*
X164846048Y-81113381D01*
X164988905Y-81161000D01*
X165607952Y-81113381D02*
X165798429Y-81113381D01*
X165893667Y-81161000D01*
X165988905Y-81256238D01*
X166036524Y-81446714D01*
X166036524Y-81780048D01*
X165988905Y-81970524D01*
X165893667Y-82065762D01*
X165798429Y-82113381D01*
X165607952Y-82113381D01*
X165512714Y-82065762D01*
X165417476Y-81970524D01*
X165369857Y-81780048D01*
X165369857Y-81446714D01*
X165417476Y-81256238D01*
X165512714Y-81161000D01*
X165607952Y-81113381D01*
X164441286Y-79525762D02*
X164584143Y-79573381D01*
X164822239Y-79573381D01*
X164917477Y-79525762D01*
X164965096Y-79478143D01*
X165012715Y-79382905D01*
X165012715Y-79287667D01*
X164965096Y-79192429D01*
X164917477Y-79144810D01*
X164822239Y-79097190D01*
X164631762Y-79049571D01*
X164536524Y-79001952D01*
X164488905Y-78954333D01*
X164441286Y-78859095D01*
X164441286Y-78763857D01*
X164488905Y-78668619D01*
X164536524Y-78621000D01*
X164631762Y-78573381D01*
X164869858Y-78573381D01*
X165012715Y-78621000D01*
X166012715Y-79478143D02*
X165965096Y-79525762D01*
X165822239Y-79573381D01*
X165727001Y-79573381D01*
X165584143Y-79525762D01*
X165488905Y-79430524D01*
X165441286Y-79335286D01*
X165393667Y-79144810D01*
X165393667Y-79001952D01*
X165441286Y-78811476D01*
X165488905Y-78716238D01*
X165584143Y-78621000D01*
X165727001Y-78573381D01*
X165822239Y-78573381D01*
X165965096Y-78621000D01*
X166012715Y-78668619D01*
X164465095Y-76985762D02*
X164607952Y-77033381D01*
X164846048Y-77033381D01*
X164941286Y-76985762D01*
X164988905Y-76938143D01*
X165036524Y-76842905D01*
X165036524Y-76747667D01*
X164988905Y-76652429D01*
X164941286Y-76604810D01*
X164846048Y-76557190D01*
X164655571Y-76509571D01*
X164560333Y-76461952D01*
X164512714Y-76414333D01*
X164465095Y-76319095D01*
X164465095Y-76223857D01*
X164512714Y-76128619D01*
X164560333Y-76081000D01*
X164655571Y-76033381D01*
X164893667Y-76033381D01*
X165036524Y-76081000D01*
X165988905Y-77033381D02*
X165417476Y-77033381D01*
X165703190Y-77033381D02*
X165703190Y-76033381D01*
X165607952Y-76176238D01*
X165512714Y-76271476D01*
X165417476Y-76319095D01*
X164465095Y-74445762D02*
X164607952Y-74493381D01*
X164846048Y-74493381D01*
X164941286Y-74445762D01*
X164988905Y-74398143D01*
X165036524Y-74302905D01*
X165036524Y-74207667D01*
X164988905Y-74112429D01*
X164941286Y-74064810D01*
X164846048Y-74017190D01*
X164655571Y-73969571D01*
X164560333Y-73921952D01*
X164512714Y-73874333D01*
X164465095Y-73779095D01*
X164465095Y-73683857D01*
X164512714Y-73588619D01*
X164560333Y-73541000D01*
X164655571Y-73493381D01*
X164893667Y-73493381D01*
X165036524Y-73541000D01*
X165417476Y-73588619D02*
X165465095Y-73541000D01*
X165560333Y-73493381D01*
X165798429Y-73493381D01*
X165893667Y-73541000D01*
X165941286Y-73588619D01*
X165988905Y-73683857D01*
X165988905Y-73779095D01*
X165941286Y-73921952D01*
X165369857Y-74493381D01*
X165988905Y-74493381D01*
X164465095Y-71905762D02*
X164607952Y-71953381D01*
X164846048Y-71953381D01*
X164941286Y-71905762D01*
X164988905Y-71858143D01*
X165036524Y-71762905D01*
X165036524Y-71667667D01*
X164988905Y-71572429D01*
X164941286Y-71524810D01*
X164846048Y-71477190D01*
X164655571Y-71429571D01*
X164560333Y-71381952D01*
X164512714Y-71334333D01*
X164465095Y-71239095D01*
X164465095Y-71143857D01*
X164512714Y-71048619D01*
X164560333Y-71001000D01*
X164655571Y-70953381D01*
X164893667Y-70953381D01*
X165036524Y-71001000D01*
X165369857Y-70953381D02*
X165988905Y-70953381D01*
X165655571Y-71334333D01*
X165798429Y-71334333D01*
X165893667Y-71381952D01*
X165941286Y-71429571D01*
X165988905Y-71524810D01*
X165988905Y-71762905D01*
X165941286Y-71858143D01*
X165893667Y-71905762D01*
X165798429Y-71953381D01*
X165512714Y-71953381D01*
X165417476Y-71905762D01*
X165369857Y-71858143D01*
X164369857Y-68413381D02*
X164703190Y-69413381D01*
X165036524Y-68413381D01*
X165369857Y-68413381D02*
X165369857Y-69222905D01*
X165417476Y-69318143D01*
X165465095Y-69365762D01*
X165560333Y-69413381D01*
X165750810Y-69413381D01*
X165846048Y-69365762D01*
X165893667Y-69318143D01*
X165941286Y-69222905D01*
X165941286Y-68413381D01*
X165488905Y-65921000D02*
X165393667Y-65873381D01*
X165250810Y-65873381D01*
X165107952Y-65921000D01*
X165012714Y-66016238D01*
X164965095Y-66111476D01*
X164917476Y-66301952D01*
X164917476Y-66444810D01*
X164965095Y-66635286D01*
X165012714Y-66730524D01*
X165107952Y-66825762D01*
X165250810Y-66873381D01*
X165346048Y-66873381D01*
X165488905Y-66825762D01*
X165536524Y-66778143D01*
X165536524Y-66444810D01*
X165346048Y-66444810D01*
X164512714Y-64047667D02*
X164988905Y-64047667D01*
X164417476Y-64333381D02*
X164750809Y-63333381D01*
X165084143Y-64333381D01*
X165607952Y-63333381D02*
X165703191Y-63333381D01*
X165798429Y-63381000D01*
X165846048Y-63428619D01*
X165893667Y-63523857D01*
X165941286Y-63714333D01*
X165941286Y-63952429D01*
X165893667Y-64142905D01*
X165846048Y-64238143D01*
X165798429Y-64285762D01*
X165703191Y-64333381D01*
X165607952Y-64333381D01*
X165512714Y-64285762D01*
X165465095Y-64238143D01*
X165417476Y-64142905D01*
X165369857Y-63952429D01*
X165369857Y-63714333D01*
X165417476Y-63523857D01*
X165465095Y-63428619D01*
X165512714Y-63381000D01*
X165607952Y-63333381D01*
X187325095Y-98893381D02*
X187944143Y-98893381D01*
X187610809Y-99274333D01*
X187753667Y-99274333D01*
X187848905Y-99321952D01*
X187896524Y-99369571D01*
X187944143Y-99464810D01*
X187944143Y-99702905D01*
X187896524Y-99798143D01*
X187848905Y-99845762D01*
X187753667Y-99893381D01*
X187467952Y-99893381D01*
X187372714Y-99845762D01*
X187325095Y-99798143D01*
X188229857Y-98893381D02*
X188563190Y-99893381D01*
X188896524Y-98893381D01*
X188348905Y-96401000D02*
X188253667Y-96353381D01*
X188110810Y-96353381D01*
X187967952Y-96401000D01*
X187872714Y-96496238D01*
X187825095Y-96591476D01*
X187777476Y-96781952D01*
X187777476Y-96924810D01*
X187825095Y-97115286D01*
X187872714Y-97210524D01*
X187967952Y-97305762D01*
X188110810Y-97353381D01*
X188206048Y-97353381D01*
X188348905Y-97305762D01*
X188396524Y-97258143D01*
X188396524Y-96924810D01*
X188206048Y-96924810D01*
X187325095Y-93813381D02*
X187896524Y-93813381D01*
X187610809Y-94813381D02*
X187610809Y-93813381D01*
X188134619Y-93813381D02*
X188801286Y-94813381D01*
X188801286Y-93813381D02*
X188134619Y-94813381D01*
X187920334Y-92273381D02*
X187587000Y-91797190D01*
X187348905Y-92273381D02*
X187348905Y-91273381D01*
X187729858Y-91273381D01*
X187825096Y-91321000D01*
X187872715Y-91368619D01*
X187920334Y-91463857D01*
X187920334Y-91606714D01*
X187872715Y-91701952D01*
X187825096Y-91749571D01*
X187729858Y-91797190D01*
X187348905Y-91797190D01*
X188253667Y-91273381D02*
X188920334Y-92273381D01*
X188920334Y-91273381D02*
X188253667Y-92273381D01*
X187348905Y-89733381D02*
X187348905Y-88733381D01*
X187587000Y-88733381D01*
X187729858Y-88781000D01*
X187825096Y-88876238D01*
X187872715Y-88971476D01*
X187920334Y-89161952D01*
X187920334Y-89304810D01*
X187872715Y-89495286D01*
X187825096Y-89590524D01*
X187729858Y-89685762D01*
X187587000Y-89733381D01*
X187348905Y-89733381D01*
X188491762Y-89161952D02*
X188396524Y-89114333D01*
X188348905Y-89066714D01*
X188301286Y-88971476D01*
X188301286Y-88923857D01*
X188348905Y-88828619D01*
X188396524Y-88781000D01*
X188491762Y-88733381D01*
X188682239Y-88733381D01*
X188777477Y-88781000D01*
X188825096Y-88828619D01*
X188872715Y-88923857D01*
X188872715Y-88971476D01*
X188825096Y-89066714D01*
X188777477Y-89114333D01*
X188682239Y-89161952D01*
X188491762Y-89161952D01*
X188396524Y-89209571D01*
X188348905Y-89257190D01*
X188301286Y-89352429D01*
X188301286Y-89542905D01*
X188348905Y-89638143D01*
X188396524Y-89685762D01*
X188491762Y-89733381D01*
X188682239Y-89733381D01*
X188777477Y-89685762D01*
X188825096Y-89638143D01*
X188872715Y-89542905D01*
X188872715Y-89352429D01*
X188825096Y-89257190D01*
X188777477Y-89209571D01*
X188682239Y-89161952D01*
X187348905Y-87193381D02*
X187348905Y-86193381D01*
X187587000Y-86193381D01*
X187729858Y-86241000D01*
X187825096Y-86336238D01*
X187872715Y-86431476D01*
X187920334Y-86621952D01*
X187920334Y-86764810D01*
X187872715Y-86955286D01*
X187825096Y-87050524D01*
X187729858Y-87145762D01*
X187587000Y-87193381D01*
X187348905Y-87193381D01*
X188253667Y-86193381D02*
X188920334Y-86193381D01*
X188491762Y-87193381D01*
X187348905Y-84653381D02*
X187348905Y-83653381D01*
X187587000Y-83653381D01*
X187729858Y-83701000D01*
X187825096Y-83796238D01*
X187872715Y-83891476D01*
X187920334Y-84081952D01*
X187920334Y-84224810D01*
X187872715Y-84415286D01*
X187825096Y-84510524D01*
X187729858Y-84605762D01*
X187587000Y-84653381D01*
X187348905Y-84653381D01*
X188777477Y-83653381D02*
X188587000Y-83653381D01*
X188491762Y-83701000D01*
X188444143Y-83748619D01*
X188348905Y-83891476D01*
X188301286Y-84081952D01*
X188301286Y-84462905D01*
X188348905Y-84558143D01*
X188396524Y-84605762D01*
X188491762Y-84653381D01*
X188682239Y-84653381D01*
X188777477Y-84605762D01*
X188825096Y-84558143D01*
X188872715Y-84462905D01*
X188872715Y-84224810D01*
X188825096Y-84129571D01*
X188777477Y-84081952D01*
X188682239Y-84034333D01*
X188491762Y-84034333D01*
X188396524Y-84081952D01*
X188348905Y-84129571D01*
X188301286Y-84224810D01*
X187348905Y-82113381D02*
X187348905Y-81113381D01*
X187587000Y-81113381D01*
X187729858Y-81161000D01*
X187825096Y-81256238D01*
X187872715Y-81351476D01*
X187920334Y-81541952D01*
X187920334Y-81684810D01*
X187872715Y-81875286D01*
X187825096Y-81970524D01*
X187729858Y-82065762D01*
X187587000Y-82113381D01*
X187348905Y-82113381D01*
X188825096Y-81113381D02*
X188348905Y-81113381D01*
X188301286Y-81589571D01*
X188348905Y-81541952D01*
X188444143Y-81494333D01*
X188682239Y-81494333D01*
X188777477Y-81541952D01*
X188825096Y-81589571D01*
X188872715Y-81684810D01*
X188872715Y-81922905D01*
X188825096Y-82018143D01*
X188777477Y-82065762D01*
X188682239Y-82113381D01*
X188444143Y-82113381D01*
X188348905Y-82065762D01*
X188301286Y-82018143D01*
X188348905Y-78621000D02*
X188253667Y-78573381D01*
X188110810Y-78573381D01*
X187967952Y-78621000D01*
X187872714Y-78716238D01*
X187825095Y-78811476D01*
X187777476Y-79001952D01*
X187777476Y-79144810D01*
X187825095Y-79335286D01*
X187872714Y-79430524D01*
X187967952Y-79525762D01*
X188110810Y-79573381D01*
X188206048Y-79573381D01*
X188348905Y-79525762D01*
X188396524Y-79478143D01*
X188396524Y-79144810D01*
X188206048Y-79144810D01*
X187325095Y-76033381D02*
X187944143Y-76033381D01*
X187610809Y-76414333D01*
X187753667Y-76414333D01*
X187848905Y-76461952D01*
X187896524Y-76509571D01*
X187944143Y-76604810D01*
X187944143Y-76842905D01*
X187896524Y-76938143D01*
X187848905Y-76985762D01*
X187753667Y-77033381D01*
X187467952Y-77033381D01*
X187372714Y-76985762D01*
X187325095Y-76938143D01*
X188229857Y-76033381D02*
X188563190Y-77033381D01*
X188896524Y-76033381D01*
X187348905Y-74493381D02*
X187348905Y-73493381D01*
X187587000Y-73493381D01*
X187729858Y-73541000D01*
X187825096Y-73636238D01*
X187872715Y-73731476D01*
X187920334Y-73921952D01*
X187920334Y-74064810D01*
X187872715Y-74255286D01*
X187825096Y-74350524D01*
X187729858Y-74445762D01*
X187587000Y-74493381D01*
X187348905Y-74493381D01*
X188777477Y-73826714D02*
X188777477Y-74493381D01*
X188539381Y-73445762D02*
X188301286Y-74160048D01*
X188920334Y-74160048D01*
X187348905Y-71953381D02*
X187348905Y-70953381D01*
X187587000Y-70953381D01*
X187729858Y-71001000D01*
X187825096Y-71096238D01*
X187872715Y-71191476D01*
X187920334Y-71381952D01*
X187920334Y-71524810D01*
X187872715Y-71715286D01*
X187825096Y-71810524D01*
X187729858Y-71905762D01*
X187587000Y-71953381D01*
X187348905Y-71953381D01*
X188253667Y-70953381D02*
X188872715Y-70953381D01*
X188539381Y-71334333D01*
X188682239Y-71334333D01*
X188777477Y-71381952D01*
X188825096Y-71429571D01*
X188872715Y-71524810D01*
X188872715Y-71762905D01*
X188825096Y-71858143D01*
X188777477Y-71905762D01*
X188682239Y-71953381D01*
X188396524Y-71953381D01*
X188301286Y-71905762D01*
X188253667Y-71858143D01*
X187348905Y-69413381D02*
X187348905Y-68413381D01*
X187587000Y-68413381D01*
X187729858Y-68461000D01*
X187825096Y-68556238D01*
X187872715Y-68651476D01*
X187920334Y-68841952D01*
X187920334Y-68984810D01*
X187872715Y-69175286D01*
X187825096Y-69270524D01*
X187729858Y-69365762D01*
X187587000Y-69413381D01*
X187348905Y-69413381D01*
X188301286Y-68508619D02*
X188348905Y-68461000D01*
X188444143Y-68413381D01*
X188682239Y-68413381D01*
X188777477Y-68461000D01*
X188825096Y-68508619D01*
X188872715Y-68603857D01*
X188872715Y-68699095D01*
X188825096Y-68841952D01*
X188253667Y-69413381D01*
X188872715Y-69413381D01*
X187348905Y-66873381D02*
X187348905Y-65873381D01*
X187587000Y-65873381D01*
X187729858Y-65921000D01*
X187825096Y-66016238D01*
X187872715Y-66111476D01*
X187920334Y-66301952D01*
X187920334Y-66444810D01*
X187872715Y-66635286D01*
X187825096Y-66730524D01*
X187729858Y-66825762D01*
X187587000Y-66873381D01*
X187348905Y-66873381D01*
X188872715Y-66873381D02*
X188301286Y-66873381D01*
X188587000Y-66873381D02*
X188587000Y-65873381D01*
X188491762Y-66016238D01*
X188396524Y-66111476D01*
X188301286Y-66159095D01*
X187348905Y-64333381D02*
X187348905Y-63333381D01*
X187587000Y-63333381D01*
X187729858Y-63381000D01*
X187825096Y-63476238D01*
X187872715Y-63571476D01*
X187920334Y-63761952D01*
X187920334Y-63904810D01*
X187872715Y-64095286D01*
X187825096Y-64190524D01*
X187729858Y-64285762D01*
X187587000Y-64333381D01*
X187348905Y-64333381D01*
X188539381Y-63333381D02*
X188634620Y-63333381D01*
X188729858Y-63381000D01*
X188777477Y-63428619D01*
X188825096Y-63523857D01*
X188872715Y-63714333D01*
X188872715Y-63952429D01*
X188825096Y-64142905D01*
X188777477Y-64238143D01*
X188729858Y-64285762D01*
X188634620Y-64333381D01*
X188539381Y-64333381D01*
X188444143Y-64285762D01*
X188396524Y-64238143D01*
X188348905Y-64142905D01*
X188301286Y-63952429D01*
X188301286Y-63714333D01*
X188348905Y-63523857D01*
X188396524Y-63428619D01*
X188444143Y-63381000D01*
X188539381Y-63333381D01*
X151511095Y-52815381D02*
X151511095Y-53624905D01*
X151558714Y-53720143D01*
X151606333Y-53767762D01*
X151701571Y-53815381D01*
X151892048Y-53815381D01*
X151987286Y-53767762D01*
X152034905Y-53720143D01*
X152082524Y-53624905D01*
X152082524Y-52815381D01*
X153082524Y-53815381D02*
X152511095Y-53815381D01*
X152796809Y-53815381D02*
X152796809Y-52815381D01*
X152701571Y-52958238D01*
X152606333Y-53053476D01*
X152511095Y-53101095D01*
X129984667Y-110498381D02*
X129651333Y-110022190D01*
X129413238Y-110498381D02*
X129413238Y-109498381D01*
X129794191Y-109498381D01*
X129889429Y-109546000D01*
X129937048Y-109593619D01*
X129984667Y-109688857D01*
X129984667Y-109831714D01*
X129937048Y-109926952D01*
X129889429Y-109974571D01*
X129794191Y-110022190D01*
X129413238Y-110022190D01*
X130413238Y-109974571D02*
X130746572Y-109974571D01*
X130889429Y-110498381D02*
X130413238Y-110498381D01*
X130413238Y-109498381D01*
X130889429Y-109498381D01*
X131651334Y-109974571D02*
X131318000Y-109974571D01*
X131318000Y-110498381D02*
X131318000Y-109498381D01*
X131794191Y-109498381D01*
X132318000Y-109498381D02*
X132318000Y-109736476D01*
X132079905Y-109641238D02*
X132318000Y-109736476D01*
X132556096Y-109641238D01*
X132175143Y-109926952D02*
X132318000Y-109736476D01*
X132460858Y-109926952D01*
X133079905Y-109498381D02*
X133079905Y-109736476D01*
X132841810Y-109641238D02*
X133079905Y-109736476D01*
X133318001Y-109641238D01*
X132937048Y-109926952D02*
X133079905Y-109736476D01*
X133222763Y-109926952D01*
X187388667Y-110498381D02*
X187055333Y-110022190D01*
X186817238Y-110498381D02*
X186817238Y-109498381D01*
X187198191Y-109498381D01*
X187293429Y-109546000D01*
X187341048Y-109593619D01*
X187388667Y-109688857D01*
X187388667Y-109831714D01*
X187341048Y-109926952D01*
X187293429Y-109974571D01*
X187198191Y-110022190D01*
X186817238Y-110022190D01*
X187817238Y-109974571D02*
X188150572Y-109974571D01*
X188293429Y-110498381D02*
X187817238Y-110498381D01*
X187817238Y-109498381D01*
X188293429Y-109498381D01*
X189055334Y-109974571D02*
X188722000Y-109974571D01*
X188722000Y-110498381D02*
X188722000Y-109498381D01*
X189198191Y-109498381D01*
X189722000Y-109498381D02*
X189722000Y-109736476D01*
X189483905Y-109641238D02*
X189722000Y-109736476D01*
X189960096Y-109641238D01*
X189579143Y-109926952D02*
X189722000Y-109736476D01*
X189864858Y-109926952D01*
X190483905Y-109498381D02*
X190483905Y-109736476D01*
X190245810Y-109641238D02*
X190483905Y-109736476D01*
X190722001Y-109641238D01*
X190341048Y-109926952D02*
X190483905Y-109736476D01*
X190626763Y-109926952D01*
X156146667Y-80526381D02*
X155813333Y-80050190D01*
X155575238Y-80526381D02*
X155575238Y-79526381D01*
X155956191Y-79526381D01*
X156051429Y-79574000D01*
X156099048Y-79621619D01*
X156146667Y-79716857D01*
X156146667Y-79859714D01*
X156099048Y-79954952D01*
X156051429Y-80002571D01*
X155956191Y-80050190D01*
X155575238Y-80050190D01*
X156575238Y-80002571D02*
X156908572Y-80002571D01*
X157051429Y-80526381D02*
X156575238Y-80526381D01*
X156575238Y-79526381D01*
X157051429Y-79526381D01*
X157813334Y-80002571D02*
X157480000Y-80002571D01*
X157480000Y-80526381D02*
X157480000Y-79526381D01*
X157956191Y-79526381D01*
X158480000Y-79526381D02*
X158480000Y-79764476D01*
X158241905Y-79669238D02*
X158480000Y-79764476D01*
X158718096Y-79669238D01*
X158337143Y-79954952D02*
X158480000Y-79764476D01*
X158622858Y-79954952D01*
X159241905Y-79526381D02*
X159241905Y-79764476D01*
X159003810Y-79669238D02*
X159241905Y-79764476D01*
X159480001Y-79669238D01*
X159099048Y-79954952D02*
X159241905Y-79764476D01*
X159384763Y-79954952D01*
M02*
